<?xml version="1.0" encoding="UTF-8" standalone="no"?>
<!-- Created with Inkscape (http://www.inkscape.org/) -->

<svg
   width="133.59229mm"
   height="128.48621mm"
   viewBox="0 0 133.59229 128.48618"
   version="1.1"
   id="svg1957"
   sodipodi:docname="frames.svg"
   inkscape:version="1.1 (1:1.1+202105261517+ce6663b3b7)"
   xmlns:inkscape="http://www.inkscape.org/namespaces/inkscape"
   xmlns:sodipodi="http://sodipodi.sourceforge.net/DTD/sodipodi-0.dtd"
   xmlns:xlink="http://www.w3.org/1999/xlink"
   xmlns="http://www.w3.org/2000/svg"
   xmlns:svg="http://www.w3.org/2000/svg"
   xmlns:ns2="http://www.iki.fi/pav/software/textext/">
  <sodipodi:namedview
     id="namedview1959"
     pagecolor="#ffffff"
     bordercolor="#666666"
     borderopacity="1.0"
     inkscape:pageshadow="2"
     inkscape:pageopacity="0.0"
     inkscape:pagecheckerboard="0"
     inkscape:document-units="mm"
     showgrid="false"
     fit-margin-top="15"
     fit-margin-left="15"
     fit-margin-right="15"
     fit-margin-bottom="15"
     inkscape:zoom="0.75187991"
     inkscape:cx="208.80994"
     inkscape:cy="222.77494"
     inkscape:window-width="1848"
     inkscape:window-height="1016"
     inkscape:window-x="72"
     inkscape:window-y="27"
     inkscape:window-maximized="1"
     inkscape:current-layer="layer1" />
  <defs
     id="defs1954">
    <linearGradient
       inkscape:collect="always"
       id="linearGradient3339">
      <stop
         style="stop-color:#916f6f;stop-opacity:1;"
         offset="0"
         id="stop3335" />
      <stop
         style="stop-color:#916f6f;stop-opacity:0;"
         offset="1"
         id="stop3337" />
    </linearGradient>
    <marker
       style="overflow:visible"
       id="Arrow1Mend"
       refX="0"
       refY="0"
       orient="auto"
       inkscape:stockid="Arrow1Mend"
       inkscape:isstock="true">
      <path
         transform="matrix(-0.4,0,0,-0.4,-4,0)"
         style="fill:context-stroke;fill-rule:evenodd;stroke:context-stroke;stroke-width:1pt"
         d="M 0,0 5,-5 -12.5,0 5,5 Z"
         id="path880" />
    </marker>
    <marker
       style="overflow:visible"
       id="marker2108"
       refX="0"
       refY="0"
       orient="auto"
       inkscape:stockid="Arrow1Mend"
       inkscape:isstock="true">
      <path
         transform="matrix(-0.4,0,0,-0.4,-4,0)"
         style="fill:context-stroke;fill-rule:evenodd;stroke:context-stroke;stroke-width:1pt"
         d="M 0,0 5,-5 -12.5,0 5,5 Z"
         id="path2106" />
    </marker>
    <marker
       style="overflow:visible"
       id="marker2112"
       refX="0"
       refY="0"
       orient="auto"
       inkscape:stockid="Arrow1Mend"
       inkscape:isstock="true">
      <path
         transform="matrix(-0.4,0,0,-0.4,-4,0)"
         style="fill:context-stroke;fill-rule:evenodd;stroke:context-stroke;stroke-width:1pt"
         d="M 0,0 5,-5 -12.5,0 5,5 Z"
         id="path2110" />
    </marker>
    <marker
       style="overflow:visible"
       id="marker2116"
       refX="0"
       refY="0"
       orient="auto"
       inkscape:stockid="Arrow1Mend"
       inkscape:isstock="true">
      <path
         transform="matrix(-0.4,0,0,-0.4,-4,0)"
         style="fill:context-stroke;fill-rule:evenodd;stroke:context-stroke;stroke-width:1pt"
         d="M 0,0 5,-5 -12.5,0 5,5 Z"
         id="path2114" />
    </marker>
    <marker
       style="overflow:visible"
       id="marker2120"
       refX="0"
       refY="0"
       orient="auto"
       inkscape:stockid="Arrow1Mend"
       inkscape:isstock="true">
      <path
         transform="matrix(-0.4,0,0,-0.4,-4,0)"
         style="fill:context-stroke;fill-rule:evenodd;stroke:context-stroke;stroke-width:1pt"
         d="M 0,0 5,-5 -12.5,0 5,5 Z"
         id="path2118" />
    </marker>
    <marker
       style="overflow:visible"
       id="marker2124"
       refX="0"
       refY="0"
       orient="auto"
       inkscape:stockid="Arrow1Mend"
       inkscape:isstock="true">
      <path
         transform="matrix(-0.4,0,0,-0.4,-4,0)"
         style="fill:context-stroke;fill-rule:evenodd;stroke:context-stroke;stroke-width:1pt"
         d="M 0,0 5,-5 -12.5,0 5,5 Z"
         id="path2122" />
    </marker>
    <marker
       style="overflow:visible"
       id="marker2128"
       refX="0"
       refY="0"
       orient="auto"
       inkscape:stockid="Arrow1Mend"
       inkscape:isstock="true">
      <path
         transform="matrix(-0.4,0,0,-0.4,-4,0)"
         style="fill:context-stroke;fill-rule:evenodd;stroke:context-stroke;stroke-width:1pt"
         d="M 0,0 5,-5 -12.5,0 5,5 Z"
         id="path2126" />
    </marker>
    <radialGradient
       inkscape:collect="always"
       xlink:href="#linearGradient3339"
       id="radialGradient3341"
       cx="103.80924"
       cy="122.10782"
       fx="103.80924"
       fy="122.10782"
       r="151.82941"
       gradientTransform="matrix(0.81477189,0,0,0.44693974,19.22839,67.532983)"
       gradientUnits="userSpaceOnUse" />
  </defs>
  <g
     inkscape:label="Layer 1"
     inkscape:groupmode="layer"
     id="layer1"
     transform="translate(-48.739398,-47.852098)">
    <path
       style="fill:url(#radialGradient3341);fill-opacity:1;fill-rule:evenodd;stroke:none;stroke-width:0.215575px;stroke-linecap:butt;stroke-linejoin:miter;stroke-opacity:1"
       d="M 76.070045,54.249223 227.51558,107.17249 132.49603,189.96641 -19.897092,138.02204 Z"
       id="path2312" />
    <path
       style="fill:#0007ff;fill-opacity:1;fill-rule:evenodd;stroke:#0007ff;stroke-width:1.165;stroke-linecap:butt;stroke-linejoin:miter;stroke-miterlimit:4;stroke-dasharray:1.165, 1.165;stroke-dashoffset:0;stroke-opacity:1;marker-end:url(#Arrow1Mend)"
       d="m 101.16467,121.48817 54.63886,24.13647"
       id="path869" />
    <path
       style="fill:none;fill-rule:evenodd;stroke:#0007ff;stroke-width:1.165;stroke-linecap:butt;stroke-linejoin:miter;stroke-miterlimit:4;stroke-dasharray:1.165, 1.165;stroke-dashoffset:0;stroke-opacity:1;marker-end:url(#Arrow1Mend)"
       d="m 101.16467,121.48817 34.00399,-4.04611"
       id="path1227"
       sodipodi:nodetypes="cc" />
    <path
       style="fill:none;fill-rule:evenodd;stroke:#0007ff;stroke-width:1.165;stroke-linecap:butt;stroke-linejoin:miter;stroke-miterlimit:4;stroke-dasharray:none;stroke-opacity:1;marker-end:url(#Arrow1Mend)"
       d="M 101.16467,121.48817 121.6618,60.122957"
       id="path1328"
       sodipodi:nodetypes="cc" />
    <path
       style="fill:none;fill-rule:evenodd;stroke:#000000;stroke-width:1.165;stroke-linecap:butt;stroke-linejoin:miter;stroke-miterlimit:4;stroke-dasharray:none;stroke-opacity:1;marker-end:url(#Arrow1Mend)"
       d="m 101.16467,121.48817 57.10218,19.52919"
       id="path1429"
       sodipodi:nodetypes="cc" />
    <path
       style="fill:none;fill-rule:evenodd;stroke:#ff4700;stroke-width:1.165;stroke-linecap:butt;stroke-linejoin:miter;stroke-miterlimit:4;stroke-dasharray:none;stroke-opacity:1;marker-end:url(#Arrow1Mend)"
       d="m 101.16467,121.48817 57.10218,19.52919"
       id="path1526"
       sodipodi:nodetypes="cc" />
    <path
       style="fill:none;fill-rule:evenodd;stroke:#ff4700;stroke-width:1.165;stroke-linecap:butt;stroke-linejoin:miter;stroke-miterlimit:4;stroke-dasharray:none;stroke-opacity:1;marker-end:url(#Arrow1Mend)"
       d="M 101.16467,121.48817 65.799269,152.38535"
       id="path1608"
       sodipodi:nodetypes="cc" />
    <path
       style="fill:none;fill-rule:evenodd;stroke:#ff4700;stroke-width:1.165;stroke-linecap:butt;stroke-linejoin:miter;stroke-miterlimit:4;stroke-dasharray:none;stroke-opacity:1;marker-end:url(#Arrow1Mend)"
       d="m 101.16467,121.48817 0.43061,-55.870983"
       id="path1709"
       sodipodi:nodetypes="cc" />
    <g
       transform="matrix(0.705556,0,0,0.705556,66.384968,154.99252)"
       ns2:version="1.3.1"
       ns2:texconverter="pdflatex"
       ns2:pdfconverter="inkscape"
       ns2:text="$\\boldsymbol{e}_1$"
       ns2:preamble="/home/tom/.config/inkscape/extensions/textext/default_packages.tex"
       ns2:scale="1.9999999877513703"
       ns2:alignment="middle center"
       ns2:jacobian_sqrt="0.705556"
       id="g3422"
       style="fill:#ff4700;fill-opacity:1">
      <defs
         id="id-1510c2e4-8584-456c-b1a7-46120dc656c1">
        <g
           id="id-e30925ac-fcd1-4cf5-aff0-fa5b54c3d263">
          <symbol
             overflow="visible"
             id="id-5da61585-1987-4ef2-8f59-e9c17ebdc93e">
            <path
               style="stroke:none;stroke-width:0"
               d=""
               id="id-755aa434-1263-4c70-a4d1-fd1617b7ba83" />
          </symbol>
          <symbol
             overflow="visible"
             id="id-7968a792-6076-478f-bbe2-a97750d1992e">
            <path
               style="stroke:none;stroke-width:0"
               d="m 2.21875,-2.171875 c 0.65625,0 1.3125,-0.0625 1.734375,-0.203125 C 4.796875,-2.65625 4.9375,-3.234375 4.9375,-3.546875 4.9375,-4.125 4.390625,-4.5 3.5625,-4.5 c -1.796875,0 -3.078125,1.234375 -3.078125,2.78125 0,1.15625 0.765625,1.796875 2.09375,1.796875 0.25,0 0.9375,-0.015625 1.53125,-0.234375 0.578125,-0.234375 0.984375,-0.640625 0.984375,-0.765625 0,-0.078125 -0.15625,-0.25 -0.25,-0.25 -0.0625,0 -0.078125,0.03125 -0.15625,0.109375 C 4.15625,-0.5 3.375,-0.28125 2.609375,-0.28125 1.890625,-0.28125 1.625,-0.671875 1.625,-1.25 c 0,-0.1875 0.046875,-0.515625 0.15625,-0.921875 z M 1.859375,-2.53125 c 0.1875,-0.734375 0.421875,-1 0.59375,-1.15625 0.34375,-0.34375 0.8125,-0.453125 1.109375,-0.453125 0.359375,0 0.78125,0.15625 0.78125,0.609375 0,1 -1.515625,1 -2.484375,1 z m 0,0"
               id="id-8e4128dc-b27b-4e94-ab9a-028ddc668813" />
          </symbol>
          <symbol
             overflow="visible"
             id="id-4c994f7e-e9f9-4a77-bf3a-4bd6a4f4ee42">
            <path
               style="stroke:none;stroke-width:0"
               d=""
               id="id-27f77d6e-515b-42cf-a6fd-59cc6e79a4d1" />
          </symbol>
          <symbol
             overflow="visible"
             id="id-3a3cc2f8-dd5e-470c-b7fb-f2dd0497bc06">
            <path
               style="stroke:none;stroke-width:0"
               d="m 2.328125,-4.4375 c 0,-0.1875 0,-0.1875 -0.203125,-0.1875 -0.453125,0.4375 -1.078125,0.4375 -1.359375,0.4375 v 0.25 c 0.15625,0 0.625,0 1,-0.1875 v 3.546875 c 0,0.234375 0,0.328125 -0.6875,0.328125 H 0.8125 V 0 c 0.125,0 0.984375,-0.03125 1.234375,-0.03125 0.21875,0 1.09375,0.03125 1.25,0.03125 V -0.25 H 3.03125 c -0.703125,0 -0.703125,-0.09375 -0.703125,-0.328125 z m 0,0"
               id="id-ff61e68a-1af9-4871-88f5-86212d42f990" />
          </symbol>
        </g>
      </defs>
      <g
         id="id-8a41fd90-3549-46ca-8671-bb10856ab4a6"
         transform="translate(-149.196,-130.265)"
         style="fill:#ff4700;fill-opacity:1">
        <g
           style="fill:#ff4700;fill-opacity:1"
           id="id-590140d1-8453-425a-9e61-118a8f1c6a13">
          <g
             transform="translate(148.712,134.765)"
             id="g3414"
             style="fill:#ff4700;fill-opacity:1">
            <path
               style="fill:#ff4700;fill-opacity:1;stroke:none;stroke-width:0"
               d="m 2.21875,-2.171875 c 0.65625,0 1.3125,-0.0625 1.734375,-0.203125 C 4.796875,-2.65625 4.9375,-3.234375 4.9375,-3.546875 4.9375,-4.125 4.390625,-4.5 3.5625,-4.5 c -1.796875,0 -3.078125,1.234375 -3.078125,2.78125 0,1.15625 0.765625,1.796875 2.09375,1.796875 0.25,0 0.9375,-0.015625 1.53125,-0.234375 0.578125,-0.234375 0.984375,-0.640625 0.984375,-0.765625 0,-0.078125 -0.15625,-0.25 -0.25,-0.25 -0.0625,0 -0.078125,0.03125 -0.15625,0.109375 C 4.15625,-0.5 3.375,-0.28125 2.609375,-0.28125 1.890625,-0.28125 1.625,-0.671875 1.625,-1.25 c 0,-0.1875 0.046875,-0.515625 0.15625,-0.921875 z M 1.859375,-2.53125 c 0.1875,-0.734375 0.421875,-1 0.59375,-1.15625 0.34375,-0.34375 0.8125,-0.453125 1.109375,-0.453125 0.359375,0 0.78125,0.15625 0.78125,0.609375 0,1 -1.515625,1 -2.484375,1 z m 0,0"
               id="id-07407ac6-6e7e-4f5e-a147-df3055514a94" />
          </g>
        </g>
        <g
           style="fill:#ff4700;fill-opacity:1"
           id="id-5da0b502-7a5c-4108-b8b3-794125de8a0b">
          <g
             transform="translate(154.228,136.259)"
             id="g3418"
             style="fill:#ff4700;fill-opacity:1">
            <path
               style="fill:#ff4700;fill-opacity:1;stroke:none;stroke-width:0"
               d="m 2.328125,-4.4375 c 0,-0.1875 0,-0.1875 -0.203125,-0.1875 -0.453125,0.4375 -1.078125,0.4375 -1.359375,0.4375 v 0.25 c 0.15625,0 0.625,0 1,-0.1875 v 3.546875 c 0,0.234375 0,0.328125 -0.6875,0.328125 H 0.8125 V 0 c 0.125,0 0.984375,-0.03125 1.234375,-0.03125 0.21875,0 1.09375,0.03125 1.25,0.03125 V -0.25 H 3.03125 c -0.703125,0 -0.703125,-0.09375 -0.703125,-0.328125 z m 0,0"
               id="id-f8414884-936e-4037-9138-41dfc1a34517" />
          </g>
        </g>
      </g>
    </g>
    <g
       transform="matrix(0.705556,0,0,0.705556,158.655,133.33364)"
       ns2:version="1.3.1"
       ns2:texconverter="pdflatex"
       ns2:pdfconverter="inkscape"
       ns2:text="$\\boldsymbol{e}_2$"
       ns2:preamble="/home/tom/.config/inkscape/extensions/textext/default_packages.tex"
       ns2:scale="1.9999999877513703"
       ns2:alignment="middle center"
       ns2:jacobian_sqrt="0.705556"
       id="g3496"
       style="fill:#ff4700;fill-opacity:1">
      <defs
         id="id-0fcc0efc-b7c1-4303-99f1-859893a72973">
        <g
           id="id-67b2bccd-c67f-4dcc-96c0-85abe1bdbb6a">
          <symbol
             overflow="visible"
             id="id-98ed7d42-c533-46ec-a4d1-59f210a8169a">
            <path
               style="stroke:none"
               d=""
               id="id-c199dffc-c4eb-47f5-8c12-47394151757d" />
          </symbol>
          <symbol
             overflow="visible"
             id="id-90e26749-d2cf-487d-ad32-203a5be3a04f">
            <path
               style="stroke:none"
               d="m 2.21875,-2.171875 c 0.65625,0 1.3125,-0.0625 1.734375,-0.203125 C 4.796875,-2.65625 4.9375,-3.234375 4.9375,-3.546875 4.9375,-4.125 4.390625,-4.5 3.5625,-4.5 c -1.796875,0 -3.078125,1.234375 -3.078125,2.78125 0,1.15625 0.765625,1.796875 2.09375,1.796875 0.25,0 0.9375,-0.015625 1.53125,-0.234375 0.578125,-0.234375 0.984375,-0.640625 0.984375,-0.765625 0,-0.078125 -0.15625,-0.25 -0.25,-0.25 -0.0625,0 -0.078125,0.03125 -0.15625,0.109375 C 4.15625,-0.5 3.375,-0.28125 2.609375,-0.28125 1.890625,-0.28125 1.625,-0.671875 1.625,-1.25 c 0,-0.1875 0.046875,-0.515625 0.15625,-0.921875 z M 1.859375,-2.53125 c 0.1875,-0.734375 0.421875,-1 0.59375,-1.15625 0.34375,-0.34375 0.8125,-0.453125 1.109375,-0.453125 0.359375,0 0.78125,0.15625 0.78125,0.609375 0,1 -1.515625,1 -2.484375,1 z m 0,0"
               id="id-96131052-6817-4e43-a0c4-e89c7326e254" />
          </symbol>
          <symbol
             overflow="visible"
             id="id-e9cec010-f4bd-426e-9482-dd35ef725244">
            <path
               style="stroke:none"
               d=""
               id="id-1e937101-b03f-4154-877f-e17c4e5fe854" />
          </symbol>
          <symbol
             overflow="visible"
             id="id-85705be0-b9cd-4dba-a5b8-260dfb32ca52">
            <path
               style="stroke:none"
               d="M 3.515625,-1.265625 H 3.28125 c -0.015625,0.15625 -0.09375,0.5625 -0.1875,0.625 C 3.046875,-0.59375 2.515625,-0.59375 2.40625,-0.59375 H 1.125 c 0.734375,-0.640625 0.984375,-0.84375 1.390625,-1.171875 0.515625,-0.40625 1,-0.84375 1,-1.5 0,-0.84375 -0.734375,-1.359375 -1.625,-1.359375 -0.859375,0 -1.453125,0.609375 -1.453125,1.25 0,0.34375 0.296875,0.390625 0.375,0.390625 0.15625,0 0.359375,-0.125 0.359375,-0.375 0,-0.125 -0.046875,-0.375 -0.40625,-0.375 C 0.984375,-4.21875 1.453125,-4.375 1.78125,-4.375 c 0.703125,0 1.0625,0.546875 1.0625,1.109375 0,0.609375 -0.4375,1.078125 -0.65625,1.328125 L 0.515625,-0.265625 C 0.4375,-0.203125 0.4375,-0.1875 0.4375,0 h 2.875 z m 0,0"
               id="id-5fe194fc-0689-4535-93ca-96c4c73c27e5" />
          </symbol>
        </g>
      </defs>
      <g
         id="id-de0203ad-09e5-47f9-bd98-012810ecf9ae"
         transform="translate(-149.196,-130.265)"
         style="fill:#ff4700;fill-opacity:1">
        <g
           style="fill:#ff4700;fill-opacity:1"
           id="id-d8e76f9f-0d73-45a3-9cad-0ac101649c96">
          <g
             transform="translate(148.712,134.765)"
             id="g3621"
             style="fill:#ff4700;fill-opacity:1">
            <path
               style="fill:#ff4700;fill-opacity:1;stroke:none"
               d="m 2.21875,-2.171875 c 0.65625,0 1.3125,-0.0625 1.734375,-0.203125 C 4.796875,-2.65625 4.9375,-3.234375 4.9375,-3.546875 4.9375,-4.125 4.390625,-4.5 3.5625,-4.5 c -1.796875,0 -3.078125,1.234375 -3.078125,2.78125 0,1.15625 0.765625,1.796875 2.09375,1.796875 0.25,0 0.9375,-0.015625 1.53125,-0.234375 0.578125,-0.234375 0.984375,-0.640625 0.984375,-0.765625 0,-0.078125 -0.15625,-0.25 -0.25,-0.25 -0.0625,0 -0.078125,0.03125 -0.15625,0.109375 C 4.15625,-0.5 3.375,-0.28125 2.609375,-0.28125 1.890625,-0.28125 1.625,-0.671875 1.625,-1.25 c 0,-0.1875 0.046875,-0.515625 0.15625,-0.921875 z M 1.859375,-2.53125 c 0.1875,-0.734375 0.421875,-1 0.59375,-1.15625 0.34375,-0.34375 0.8125,-0.453125 1.109375,-0.453125 0.359375,0 0.78125,0.15625 0.78125,0.609375 0,1 -1.515625,1 -2.484375,1 z m 0,0"
               id="id-7c2e7049-99d1-4dd8-8d25-066eee0616bf" />
          </g>
        </g>
        <g
           style="fill:#ff4700;fill-opacity:1"
           id="id-6736376c-2a01-4dd5-ae27-79457f7a4f55">
          <g
             transform="translate(154.228,136.259)"
             id="g3625"
             style="fill:#ff4700;fill-opacity:1">
            <path
               style="fill:#ff4700;fill-opacity:1;stroke:none"
               d="M 3.515625,-1.265625 H 3.28125 c -0.015625,0.15625 -0.09375,0.5625 -0.1875,0.625 C 3.046875,-0.59375 2.515625,-0.59375 2.40625,-0.59375 H 1.125 c 0.734375,-0.640625 0.984375,-0.84375 1.390625,-1.171875 0.515625,-0.40625 1,-0.84375 1,-1.5 0,-0.84375 -0.734375,-1.359375 -1.625,-1.359375 -0.859375,0 -1.453125,0.609375 -1.453125,1.25 0,0.34375 0.296875,0.390625 0.375,0.390625 0.15625,0 0.359375,-0.125 0.359375,-0.375 0,-0.125 -0.046875,-0.375 -0.40625,-0.375 C 0.984375,-4.21875 1.453125,-4.375 1.78125,-4.375 c 0.703125,0 1.0625,0.546875 1.0625,1.109375 0,0.609375 -0.4375,1.078125 -0.65625,1.328125 L 0.515625,-0.265625 C 0.4375,-0.203125 0.4375,-0.1875 0.4375,0 h 2.875 z m 0,0"
               id="id-921750b8-4380-4b0e-9b67-8c3142a563af" />
          </g>
        </g>
      </g>
    </g>
    <g
       transform="matrix(0.705556,0,0,0.705556,91.550179,63.381265)"
       ns2:version="1.3.1"
       ns2:texconverter="pdflatex"
       ns2:pdfconverter="inkscape"
       ns2:text="$\\boldsymbol{e}_3$"
       ns2:preamble="/home/tom/.config/inkscape/extensions/textext/default_packages.tex"
       ns2:scale="1.9999999877513703"
       ns2:alignment="middle center"
       ns2:jacobian_sqrt="0.705556"
       id="g3702"
       style="fill:#ff4700;fill-opacity:1">
      <defs
         id="id-f8e56685-4036-43d6-b711-afe6610c4cc5">
        <g
           id="id-b332e6e8-ccec-4a55-9f35-4a4826cbd3d6">
          <symbol
             overflow="visible"
             id="id-c308c2f1-1961-45f3-8b37-1f65a12a95bc">
            <path
               style="stroke:none"
               d=""
               id="id-cee67605-4fba-42db-a7b6-0376ea4073d0" />
          </symbol>
          <symbol
             overflow="visible"
             id="id-d0324a98-0b86-407d-8c13-ef23f05b57eb">
            <path
               style="stroke:none"
               d="m 2.21875,-2.171875 c 0.65625,0 1.3125,-0.0625 1.734375,-0.203125 C 4.796875,-2.65625 4.9375,-3.234375 4.9375,-3.546875 4.9375,-4.125 4.390625,-4.5 3.5625,-4.5 c -1.796875,0 -3.078125,1.234375 -3.078125,2.78125 0,1.15625 0.765625,1.796875 2.09375,1.796875 0.25,0 0.9375,-0.015625 1.53125,-0.234375 0.578125,-0.234375 0.984375,-0.640625 0.984375,-0.765625 0,-0.078125 -0.15625,-0.25 -0.25,-0.25 -0.0625,0 -0.078125,0.03125 -0.15625,0.109375 C 4.15625,-0.5 3.375,-0.28125 2.609375,-0.28125 1.890625,-0.28125 1.625,-0.671875 1.625,-1.25 c 0,-0.1875 0.046875,-0.515625 0.15625,-0.921875 z M 1.859375,-2.53125 c 0.1875,-0.734375 0.421875,-1 0.59375,-1.15625 0.34375,-0.34375 0.8125,-0.453125 1.109375,-0.453125 0.359375,0 0.78125,0.15625 0.78125,0.609375 0,1 -1.515625,1 -2.484375,1 z m 0,0"
               id="id-d359ab53-32f3-4096-aca2-d18ca527c3e6" />
          </symbol>
          <symbol
             overflow="visible"
             id="id-14106db3-d7a8-48d6-a247-a3b31f2ac4b1">
            <path
               style="stroke:none"
               d=""
               id="id-c472431c-280a-4bf4-a330-864746720b46" />
          </symbol>
          <symbol
             overflow="visible"
             id="id-cc5af524-61ee-49ba-bb63-79be793644ac">
            <path
               style="stroke:none"
               d="m 1.90625,-2.328125 c 0.546875,0 0.9375,0.375 0.9375,1.125 0,0.859375 -0.515625,1.125 -0.90625,1.125 -0.28125,0 -0.90625,-0.078125 -1.1875,-0.5 0.328125,0 0.40625,-0.234375 0.40625,-0.390625 0,-0.21875 -0.171875,-0.375 -0.390625,-0.375 -0.1875,0 -0.390625,0.125 -0.390625,0.40625 0,0.65625 0.71875,1.078125 1.5625,1.078125 0.96875,0 1.640625,-0.65625 1.640625,-1.34375 0,-0.546875 -0.4375,-1.09375 -1.203125,-1.25 0.71875,-0.265625 0.984375,-0.78125 0.984375,-1.21875 0,-0.546875 -0.625,-0.953125 -1.40625,-0.953125 -0.765625,0 -1.359375,0.375 -1.359375,0.9375 0,0.234375 0.15625,0.359375 0.359375,0.359375 0.21875,0 0.359375,-0.15625 0.359375,-0.34375 0,-0.203125 -0.140625,-0.359375 -0.359375,-0.375 0.25,-0.296875 0.71875,-0.375 0.984375,-0.375 0.3125,0 0.75,0.15625 0.75,0.75 0,0.296875 -0.09375,0.625 -0.28125,0.828125 -0.21875,0.265625 -0.421875,0.28125 -0.765625,0.3125 -0.171875,0.015625 -0.1875,0.015625 -0.21875,0.015625 -0.015625,0 -0.078125,0.015625 -0.078125,0.09375 0,0.09375 0.0625,0.09375 0.1875,0.09375 z m 0,0"
               id="id-ec57150c-1a4d-41b1-921e-3932d8d79966" />
          </symbol>
        </g>
      </defs>
      <g
         id="id-dec96db8-e6bd-4dd3-ae59-2df9a0ef43f3"
         transform="translate(-149.196,-130.265)"
         style="fill:#ff4700;fill-opacity:1">
        <g
           style="fill:#ff4700;fill-opacity:1"
           id="id-02ff0324-5188-40f2-84a7-0248c279a8cf">
          <g
             transform="translate(148.712,134.765)"
             id="g3863"
             style="fill:#ff4700;fill-opacity:1">
            <path
               style="fill:#ff4700;fill-opacity:1;stroke:none"
               d="m 2.21875,-2.171875 c 0.65625,0 1.3125,-0.0625 1.734375,-0.203125 C 4.796875,-2.65625 4.9375,-3.234375 4.9375,-3.546875 4.9375,-4.125 4.390625,-4.5 3.5625,-4.5 c -1.796875,0 -3.078125,1.234375 -3.078125,2.78125 0,1.15625 0.765625,1.796875 2.09375,1.796875 0.25,0 0.9375,-0.015625 1.53125,-0.234375 0.578125,-0.234375 0.984375,-0.640625 0.984375,-0.765625 0,-0.078125 -0.15625,-0.25 -0.25,-0.25 -0.0625,0 -0.078125,0.03125 -0.15625,0.109375 C 4.15625,-0.5 3.375,-0.28125 2.609375,-0.28125 1.890625,-0.28125 1.625,-0.671875 1.625,-1.25 c 0,-0.1875 0.046875,-0.515625 0.15625,-0.921875 z M 1.859375,-2.53125 c 0.1875,-0.734375 0.421875,-1 0.59375,-1.15625 0.34375,-0.34375 0.8125,-0.453125 1.109375,-0.453125 0.359375,0 0.78125,0.15625 0.78125,0.609375 0,1 -1.515625,1 -2.484375,1 z m 0,0"
               id="id-441b89a5-4704-456e-ad14-346b2052e3d8" />
          </g>
        </g>
        <g
           style="fill:#ff4700;fill-opacity:1"
           id="id-89f918be-54f8-4b4a-bd69-c613bb655549">
          <g
             transform="translate(154.228,136.259)"
             id="g3867"
             style="fill:#ff4700;fill-opacity:1">
            <path
               style="fill:#ff4700;fill-opacity:1;stroke:none"
               d="m 1.90625,-2.328125 c 0.546875,0 0.9375,0.375 0.9375,1.125 0,0.859375 -0.515625,1.125 -0.90625,1.125 -0.28125,0 -0.90625,-0.078125 -1.1875,-0.5 0.328125,0 0.40625,-0.234375 0.40625,-0.390625 0,-0.21875 -0.171875,-0.375 -0.390625,-0.375 -0.1875,0 -0.390625,0.125 -0.390625,0.40625 0,0.65625 0.71875,1.078125 1.5625,1.078125 0.96875,0 1.640625,-0.65625 1.640625,-1.34375 0,-0.546875 -0.4375,-1.09375 -1.203125,-1.25 0.71875,-0.265625 0.984375,-0.78125 0.984375,-1.21875 0,-0.546875 -0.625,-0.953125 -1.40625,-0.953125 -0.765625,0 -1.359375,0.375 -1.359375,0.9375 0,0.234375 0.15625,0.359375 0.359375,0.359375 0.21875,0 0.359375,-0.15625 0.359375,-0.34375 0,-0.203125 -0.140625,-0.359375 -0.359375,-0.375 0.25,-0.296875 0.71875,-0.375 0.984375,-0.375 0.3125,0 0.75,0.15625 0.75,0.75 0,0.296875 -0.09375,0.625 -0.28125,0.828125 -0.21875,0.265625 -0.421875,0.28125 -0.765625,0.3125 -0.171875,0.015625 -0.1875,0.015625 -0.21875,0.015625 -0.015625,0 -0.078125,0.015625 -0.078125,0.09375 0,0.09375 0.0625,0.09375 0.1875,0.09375 z m 0,0"
               id="id-1a2859d6-1b59-4c56-b90b-060e3a50f279" />
          </g>
        </g>
      </g>
    </g>
    <g
       transform="matrix(0.705556,0,0,0.705556,147.554,148.019)"
       ns2:version="1.3.1"
       ns2:texconverter="pdflatex"
       ns2:pdfconverter="inkscape"
       ns2:text="$\\boldsymbol{e}'_1$"
       ns2:preamble="/home/tom/.config/inkscape/extensions/textext/default_packages.tex"
       ns2:scale="1.9999999877513703"
       ns2:alignment="middle center"
       ns2:jacobian_sqrt="0.705556"
       id="g3944"
       style="fill:#0007ff;fill-opacity:1">
      <defs
         id="id-c31196c7-3a40-4c40-8a42-9e8b0899c1ea">
        <g
           id="id-cf960332-a833-4844-a3ca-c02ccf590064">
          <symbol
             overflow="visible"
             id="id-7baa8591-1ea1-4ae4-b5ef-521fc6391da1">
            <path
               style="stroke:none"
               d=""
               id="id-91ba4681-91d3-464d-a9d1-0bffe8873600" />
          </symbol>
          <symbol
             overflow="visible"
             id="id-0fefcb1a-1df9-498e-8d70-080d916d5275">
            <path
               style="stroke:none"
               d="m 2.21875,-2.171875 c 0.65625,0 1.3125,-0.0625 1.734375,-0.203125 C 4.796875,-2.65625 4.9375,-3.234375 4.9375,-3.546875 4.9375,-4.125 4.390625,-4.5 3.5625,-4.5 c -1.796875,0 -3.078125,1.234375 -3.078125,2.78125 0,1.15625 0.765625,1.796875 2.09375,1.796875 0.25,0 0.9375,-0.015625 1.53125,-0.234375 0.578125,-0.234375 0.984375,-0.640625 0.984375,-0.765625 0,-0.078125 -0.15625,-0.25 -0.25,-0.25 -0.0625,0 -0.078125,0.03125 -0.15625,0.109375 C 4.15625,-0.5 3.375,-0.28125 2.609375,-0.28125 1.890625,-0.28125 1.625,-0.671875 1.625,-1.25 c 0,-0.1875 0.046875,-0.515625 0.15625,-0.921875 z M 1.859375,-2.53125 c 0.1875,-0.734375 0.421875,-1 0.59375,-1.15625 0.34375,-0.34375 0.8125,-0.453125 1.109375,-0.453125 0.359375,0 0.78125,0.15625 0.78125,0.609375 0,1 -1.515625,1 -2.484375,1 z m 0,0"
               id="id-7d61ea52-a0f5-4d1a-9ea7-57d7f87b890f" />
          </symbol>
          <symbol
             overflow="visible"
             id="id-844b334e-1c1b-4b01-acd5-ccf2fb961122">
            <path
               style="stroke:none"
               d=""
               id="id-5acaf342-9690-4f0d-9c4d-2b753e56c4cc" />
          </symbol>
          <symbol
             overflow="visible"
             id="id-5da2920f-ac07-44fa-8e6e-c45e851d505f">
            <path
               style="stroke:none"
               d="m 2.015625,-3.296875 c 0.0625,-0.109375 0.0625,-0.171875 0.0625,-0.21875 0,-0.21875 -0.1875,-0.375 -0.40625,-0.375 -0.265625,0 -0.34375,0.21875 -0.375,0.328125 L 0.375,-0.546875 c -0.015625,0.015625 -0.046875,0.09375 -0.046875,0.109375 0,0.078125 0.21875,0.15625 0.28125,0.15625 0.046875,0 0.046875,-0.015625 0.09375,-0.125 z m 0,0"
               id="id-b8d3f9d3-701e-40e9-99ce-119ce7076a31" />
          </symbol>
          <symbol
             overflow="visible"
             id="id-f8ba8f43-6e55-48f9-8234-666d5dc4e000">
            <path
               style="stroke:none"
               d=""
               id="id-4ea1a8bb-f49b-4a79-95bb-3947f93ebab0" />
          </symbol>
          <symbol
             overflow="visible"
             id="id-03b0e347-2aae-42e1-81e3-2edbb9ea6038">
            <path
               style="stroke:none"
               d="m 2.328125,-4.4375 c 0,-0.1875 0,-0.1875 -0.203125,-0.1875 -0.453125,0.4375 -1.078125,0.4375 -1.359375,0.4375 v 0.25 c 0.15625,0 0.625,0 1,-0.1875 v 3.546875 c 0,0.234375 0,0.328125 -0.6875,0.328125 H 0.8125 V 0 c 0.125,0 0.984375,-0.03125 1.234375,-0.03125 0.21875,0 1.09375,0.03125 1.25,0.03125 V -0.25 H 3.03125 c -0.703125,0 -0.703125,-0.09375 -0.703125,-0.328125 z m 0,0"
               id="id-b6ed2d3e-7c0f-4f6b-adbd-8016be85dcb2" />
          </symbol>
        </g>
      </defs>
      <g
         id="id-4847677e-d9b0-4a97-8576-4a799f6f07d9"
         transform="translate(-149.196,-127.258)"
         style="fill:#0007ff;fill-opacity:1">
        <g
           style="fill:#0007ff;fill-opacity:1"
           id="id-c5a21f17-d3d7-4438-8324-76fd1bc6478b">
          <g
             transform="translate(148.712,134.765)"
             id="g4145"
             style="fill:#0007ff;fill-opacity:1">
            <path
               style="fill:#0007ff;fill-opacity:1;stroke:none"
               d="m 2.21875,-2.171875 c 0.65625,0 1.3125,-0.0625 1.734375,-0.203125 C 4.796875,-2.65625 4.9375,-3.234375 4.9375,-3.546875 4.9375,-4.125 4.390625,-4.5 3.5625,-4.5 c -1.796875,0 -3.078125,1.234375 -3.078125,2.78125 0,1.15625 0.765625,1.796875 2.09375,1.796875 0.25,0 0.9375,-0.015625 1.53125,-0.234375 0.578125,-0.234375 0.984375,-0.640625 0.984375,-0.765625 0,-0.078125 -0.15625,-0.25 -0.25,-0.25 -0.0625,0 -0.078125,0.03125 -0.15625,0.109375 C 4.15625,-0.5 3.375,-0.28125 2.609375,-0.28125 1.890625,-0.28125 1.625,-0.671875 1.625,-1.25 c 0,-0.1875 0.046875,-0.515625 0.15625,-0.921875 z M 1.859375,-2.53125 c 0.1875,-0.734375 0.421875,-1 0.59375,-1.15625 0.34375,-0.34375 0.8125,-0.453125 1.109375,-0.453125 0.359375,0 0.78125,0.15625 0.78125,0.609375 0,1 -1.515625,1 -2.484375,1 z m 0,0"
               id="id-8e6a4676-493d-4eda-937b-086e20c00ab5" />
          </g>
        </g>
        <g
           style="fill:#0007ff;fill-opacity:1"
           id="id-5a3f9f77-4369-4f18-9741-b572f0846aa5">
          <g
             transform="translate(154.228,131.149)"
             id="g4149"
             style="fill:#0007ff;fill-opacity:1">
            <path
               style="fill:#0007ff;fill-opacity:1;stroke:none"
               d="m 2.015625,-3.296875 c 0.0625,-0.109375 0.0625,-0.171875 0.0625,-0.21875 0,-0.21875 -0.1875,-0.375 -0.40625,-0.375 -0.265625,0 -0.34375,0.21875 -0.375,0.328125 L 0.375,-0.546875 c -0.015625,0.015625 -0.046875,0.09375 -0.046875,0.109375 0,0.078125 0.21875,0.15625 0.28125,0.15625 0.046875,0 0.046875,-0.015625 0.09375,-0.125 z m 0,0"
               id="id-7b27261c-7672-4048-a5b9-8fc5a46002d4" />
          </g>
        </g>
        <g
           style="fill:#0007ff;fill-opacity:1"
           id="id-ec008e8c-818a-4a0e-93b7-0c217a9d761d">
          <g
             transform="translate(154.228,137.237)"
             id="g4153"
             style="fill:#0007ff;fill-opacity:1">
            <path
               style="fill:#0007ff;fill-opacity:1;stroke:none"
               d="m 2.328125,-4.4375 c 0,-0.1875 0,-0.1875 -0.203125,-0.1875 -0.453125,0.4375 -1.078125,0.4375 -1.359375,0.4375 v 0.25 c 0.15625,0 0.625,0 1,-0.1875 v 3.546875 c 0,0.234375 0,0.328125 -0.6875,0.328125 H 0.8125 V 0 c 0.125,0 0.984375,-0.03125 1.234375,-0.03125 0.21875,0 1.09375,0.03125 1.25,0.03125 V -0.25 H 3.03125 c -0.703125,0 -0.703125,-0.09375 -0.703125,-0.328125 z m 0,0"
               id="id-a6520f24-c3df-47de-b371-6a1fe1298108" />
          </g>
        </g>
      </g>
    </g>
    <g
       transform="matrix(0.705556,0,0,0.705556,138.91415,110.06766)"
       ns2:version="1.3.1"
       ns2:texconverter="pdflatex"
       ns2:pdfconverter="inkscape"
       ns2:text="$\\boldsymbol{e}'_2$"
       ns2:preamble="/home/tom/.config/inkscape/extensions/textext/default_packages.tex"
       ns2:scale="1.9999999877513703"
       ns2:alignment="middle center"
       ns2:jacobian_sqrt="0.705556"
       id="g4873"
       style="fill:#0007ff;fill-opacity:1">
      <defs
         id="id-6ded79e0-c35c-49ef-8fae-1cf5f6f1973e">
        <g
           id="id-975202d8-c029-4464-974f-b72718f1b7ff">
          <symbol
             overflow="visible"
             id="id-a4de7c9d-b4be-405a-ab17-4f96b95bfa11">
            <path
               style="stroke:none"
               d=""
               id="id-43b9e6d8-c5a5-41ce-aba3-a4e8b695f9f6" />
          </symbol>
          <symbol
             overflow="visible"
             id="id-3fc3eac2-3b9b-41be-b369-368016a1d333">
            <path
               style="stroke:none"
               d="m 2.21875,-2.171875 c 0.65625,0 1.3125,-0.0625 1.734375,-0.203125 C 4.796875,-2.65625 4.9375,-3.234375 4.9375,-3.546875 4.9375,-4.125 4.390625,-4.5 3.5625,-4.5 c -1.796875,0 -3.078125,1.234375 -3.078125,2.78125 0,1.15625 0.765625,1.796875 2.09375,1.796875 0.25,0 0.9375,-0.015625 1.53125,-0.234375 0.578125,-0.234375 0.984375,-0.640625 0.984375,-0.765625 0,-0.078125 -0.15625,-0.25 -0.25,-0.25 -0.0625,0 -0.078125,0.03125 -0.15625,0.109375 C 4.15625,-0.5 3.375,-0.28125 2.609375,-0.28125 1.890625,-0.28125 1.625,-0.671875 1.625,-1.25 c 0,-0.1875 0.046875,-0.515625 0.15625,-0.921875 z M 1.859375,-2.53125 c 0.1875,-0.734375 0.421875,-1 0.59375,-1.15625 0.34375,-0.34375 0.8125,-0.453125 1.109375,-0.453125 0.359375,0 0.78125,0.15625 0.78125,0.609375 0,1 -1.515625,1 -2.484375,1 z m 0,0"
               id="id-69c45221-8f9a-42f6-8b4b-3cf198f07997" />
          </symbol>
          <symbol
             overflow="visible"
             id="id-6f642ce6-f567-4e77-822b-be5919c992b0">
            <path
               style="stroke:none"
               d=""
               id="id-4609b1ef-b2b4-472a-ab1c-41bfbf07f7d9" />
          </symbol>
          <symbol
             overflow="visible"
             id="id-4e1b9220-07f7-40f9-9ed9-927001053b91">
            <path
               style="stroke:none"
               d="m 2.015625,-3.296875 c 0.0625,-0.109375 0.0625,-0.171875 0.0625,-0.21875 0,-0.21875 -0.1875,-0.375 -0.40625,-0.375 -0.265625,0 -0.34375,0.21875 -0.375,0.328125 L 0.375,-0.546875 c -0.015625,0.015625 -0.046875,0.09375 -0.046875,0.109375 0,0.078125 0.21875,0.15625 0.28125,0.15625 0.046875,0 0.046875,-0.015625 0.09375,-0.125 z m 0,0"
               id="id-e6f1756b-976a-4133-975e-1861b0160620" />
          </symbol>
          <symbol
             overflow="visible"
             id="id-9e4366b7-c849-4b5b-9559-7ef3210486a1">
            <path
               style="stroke:none"
               d=""
               id="id-4db73264-9a9a-4c42-ba3b-1da5306f0a38" />
          </symbol>
          <symbol
             overflow="visible"
             id="id-1862b37f-2143-4ab0-bb14-89c64d668ab9">
            <path
               style="stroke:none"
               d="M 3.515625,-1.265625 H 3.28125 c -0.015625,0.15625 -0.09375,0.5625 -0.1875,0.625 C 3.046875,-0.59375 2.515625,-0.59375 2.40625,-0.59375 H 1.125 c 0.734375,-0.640625 0.984375,-0.84375 1.390625,-1.171875 0.515625,-0.40625 1,-0.84375 1,-1.5 0,-0.84375 -0.734375,-1.359375 -1.625,-1.359375 -0.859375,0 -1.453125,0.609375 -1.453125,1.25 0,0.34375 0.296875,0.390625 0.375,0.390625 0.15625,0 0.359375,-0.125 0.359375,-0.375 0,-0.125 -0.046875,-0.375 -0.40625,-0.375 C 0.984375,-4.21875 1.453125,-4.375 1.78125,-4.375 c 0.703125,0 1.0625,0.546875 1.0625,1.109375 0,0.609375 -0.4375,1.078125 -0.65625,1.328125 L 0.515625,-0.265625 C 0.4375,-0.203125 0.4375,-0.1875 0.4375,0 h 2.875 z m 0,0"
               id="id-3960c5b0-bebb-4186-b292-7a8e622150b0" />
          </symbol>
        </g>
      </defs>
      <g
         id="id-01497265-9a04-4bac-90d0-f7f0515e200c"
         transform="translate(-149.196,-127.258)"
         style="fill:#0007ff;fill-opacity:1">
        <g
           style="fill:#0007ff;fill-opacity:1"
           id="id-ba93a402-fc74-4cf6-8032-62e6c0f1b40e">
          <g
             transform="translate(148.712,134.765)"
             id="g5131"
             style="fill:#0007ff;fill-opacity:1">
            <path
               style="fill:#0007ff;fill-opacity:1;stroke:none"
               d="m 2.21875,-2.171875 c 0.65625,0 1.3125,-0.0625 1.734375,-0.203125 C 4.796875,-2.65625 4.9375,-3.234375 4.9375,-3.546875 4.9375,-4.125 4.390625,-4.5 3.5625,-4.5 c -1.796875,0 -3.078125,1.234375 -3.078125,2.78125 0,1.15625 0.765625,1.796875 2.09375,1.796875 0.25,0 0.9375,-0.015625 1.53125,-0.234375 0.578125,-0.234375 0.984375,-0.640625 0.984375,-0.765625 0,-0.078125 -0.15625,-0.25 -0.25,-0.25 -0.0625,0 -0.078125,0.03125 -0.15625,0.109375 C 4.15625,-0.5 3.375,-0.28125 2.609375,-0.28125 1.890625,-0.28125 1.625,-0.671875 1.625,-1.25 c 0,-0.1875 0.046875,-0.515625 0.15625,-0.921875 z M 1.859375,-2.53125 c 0.1875,-0.734375 0.421875,-1 0.59375,-1.15625 0.34375,-0.34375 0.8125,-0.453125 1.109375,-0.453125 0.359375,0 0.78125,0.15625 0.78125,0.609375 0,1 -1.515625,1 -2.484375,1 z m 0,0"
               id="id-faedab98-11b3-4aed-a6cd-c6d727cfe8d0" />
          </g>
        </g>
        <g
           style="fill:#0007ff;fill-opacity:1"
           id="id-30562555-900d-4f3c-ac35-c934333d677a">
          <g
             transform="translate(154.228,131.149)"
             id="g5135"
             style="fill:#0007ff;fill-opacity:1">
            <path
               style="fill:#0007ff;fill-opacity:1;stroke:none"
               d="m 2.015625,-3.296875 c 0.0625,-0.109375 0.0625,-0.171875 0.0625,-0.21875 0,-0.21875 -0.1875,-0.375 -0.40625,-0.375 -0.265625,0 -0.34375,0.21875 -0.375,0.328125 L 0.375,-0.546875 c -0.015625,0.015625 -0.046875,0.09375 -0.046875,0.109375 0,0.078125 0.21875,0.15625 0.28125,0.15625 0.046875,0 0.046875,-0.015625 0.09375,-0.125 z m 0,0"
               id="id-2180a4e5-f997-4e39-ad7f-468266dad7a1" />
          </g>
        </g>
        <g
           style="fill:#0007ff;fill-opacity:1"
           id="id-6c8a5f1b-9c66-45a7-816f-0e9839d60f41">
          <g
             transform="translate(154.228,137.237)"
             id="g5139"
             style="fill:#0007ff;fill-opacity:1">
            <path
               style="fill:#0007ff;fill-opacity:1;stroke:none"
               d="M 3.515625,-1.265625 H 3.28125 c -0.015625,0.15625 -0.09375,0.5625 -0.1875,0.625 C 3.046875,-0.59375 2.515625,-0.59375 2.40625,-0.59375 H 1.125 c 0.734375,-0.640625 0.984375,-0.84375 1.390625,-1.171875 0.515625,-0.40625 1,-0.84375 1,-1.5 0,-0.84375 -0.734375,-1.359375 -1.625,-1.359375 -0.859375,0 -1.453125,0.609375 -1.453125,1.25 0,0.34375 0.296875,0.390625 0.375,0.390625 0.15625,0 0.359375,-0.125 0.359375,-0.375 0,-0.125 -0.046875,-0.375 -0.40625,-0.375 C 0.984375,-4.21875 1.453125,-4.375 1.78125,-4.375 c 0.703125,0 1.0625,0.546875 1.0625,1.109375 0,0.609375 -0.4375,1.078125 -0.65625,1.328125 L 0.515625,-0.265625 C 0.4375,-0.203125 0.4375,-0.1875 0.4375,0 h 2.875 z m 0,0"
               id="id-784f47d7-12f0-4189-9cc3-1d26e18c5256" />
          </g>
        </g>
      </g>
    </g>
    <g
       transform="matrix(0.705556,0,0,0.705556,125.32766,57.708132)"
       ns2:version="1.3.1"
       ns2:texconverter="pdflatex"
       ns2:pdfconverter="inkscape"
       ns2:text="$\\boldsymbol{e}'_3$"
       ns2:preamble="/home/tom/.config/inkscape/extensions/textext/default_packages.tex"
       ns2:scale="1.9999999877513703"
       ns2:alignment="middle center"
       ns2:jacobian_sqrt="0.705556"
       id="g5237"
       style="fill:#0007ff;fill-opacity:1">
      <defs
         id="id-50c8518f-0cce-4fea-b8d8-f5716e9f1587">
        <g
           id="id-38bcc11a-ba3a-438e-a225-23a8a0e53e51">
          <symbol
             overflow="visible"
             id="id-19c3bf90-c0aa-443e-ad6f-c17eaf7f86c5">
            <path
               style="stroke:none"
               d=""
               id="id-a7c9e128-73c8-418e-905c-60db56a683c9" />
          </symbol>
          <symbol
             overflow="visible"
             id="id-7e80925b-74e8-4ac4-bcb2-624ab207f243">
            <path
               style="stroke:none"
               d="m 2.21875,-2.171875 c 0.65625,0 1.3125,-0.0625 1.734375,-0.203125 C 4.796875,-2.65625 4.9375,-3.234375 4.9375,-3.546875 4.9375,-4.125 4.390625,-4.5 3.5625,-4.5 c -1.796875,0 -3.078125,1.234375 -3.078125,2.78125 0,1.15625 0.765625,1.796875 2.09375,1.796875 0.25,0 0.9375,-0.015625 1.53125,-0.234375 0.578125,-0.234375 0.984375,-0.640625 0.984375,-0.765625 0,-0.078125 -0.15625,-0.25 -0.25,-0.25 -0.0625,0 -0.078125,0.03125 -0.15625,0.109375 C 4.15625,-0.5 3.375,-0.28125 2.609375,-0.28125 1.890625,-0.28125 1.625,-0.671875 1.625,-1.25 c 0,-0.1875 0.046875,-0.515625 0.15625,-0.921875 z M 1.859375,-2.53125 c 0.1875,-0.734375 0.421875,-1 0.59375,-1.15625 0.34375,-0.34375 0.8125,-0.453125 1.109375,-0.453125 0.359375,0 0.78125,0.15625 0.78125,0.609375 0,1 -1.515625,1 -2.484375,1 z m 0,0"
               id="id-a50f51e6-34dd-45f1-89e7-c328ce3c5ae7" />
          </symbol>
          <symbol
             overflow="visible"
             id="id-471cb412-37ad-4f7c-abea-8ebfaeee80ac">
            <path
               style="stroke:none"
               d=""
               id="id-a2294e37-60aa-4586-a5e9-e899fca867d5" />
          </symbol>
          <symbol
             overflow="visible"
             id="id-01df28e3-c239-4a45-8c6e-469fcd941b66">
            <path
               style="stroke:none"
               d="m 2.015625,-3.296875 c 0.0625,-0.109375 0.0625,-0.171875 0.0625,-0.21875 0,-0.21875 -0.1875,-0.375 -0.40625,-0.375 -0.265625,0 -0.34375,0.21875 -0.375,0.328125 L 0.375,-0.546875 c -0.015625,0.015625 -0.046875,0.09375 -0.046875,0.109375 0,0.078125 0.21875,0.15625 0.28125,0.15625 0.046875,0 0.046875,-0.015625 0.09375,-0.125 z m 0,0"
               id="id-0f489e2d-a943-4c69-a61d-bf1b6db343aa" />
          </symbol>
          <symbol
             overflow="visible"
             id="id-be444814-565d-47fe-9efe-b0d321d32827">
            <path
               style="stroke:none"
               d=""
               id="id-5584d88f-7a1a-4c15-92ee-b072191650b3" />
          </symbol>
          <symbol
             overflow="visible"
             id="id-f7d2af14-6381-416b-85e8-b571771c53af">
            <path
               style="stroke:none"
               d="m 1.90625,-2.328125 c 0.546875,0 0.9375,0.375 0.9375,1.125 0,0.859375 -0.515625,1.125 -0.90625,1.125 -0.28125,0 -0.90625,-0.078125 -1.1875,-0.5 0.328125,0 0.40625,-0.234375 0.40625,-0.390625 0,-0.21875 -0.171875,-0.375 -0.390625,-0.375 -0.1875,0 -0.390625,0.125 -0.390625,0.40625 0,0.65625 0.71875,1.078125 1.5625,1.078125 0.96875,0 1.640625,-0.65625 1.640625,-1.34375 0,-0.546875 -0.4375,-1.09375 -1.203125,-1.25 0.71875,-0.265625 0.984375,-0.78125 0.984375,-1.21875 0,-0.546875 -0.625,-0.953125 -1.40625,-0.953125 -0.765625,0 -1.359375,0.375 -1.359375,0.9375 0,0.234375 0.15625,0.359375 0.359375,0.359375 0.21875,0 0.359375,-0.15625 0.359375,-0.34375 0,-0.203125 -0.140625,-0.359375 -0.359375,-0.375 0.25,-0.296875 0.71875,-0.375 0.984375,-0.375 0.3125,0 0.75,0.15625 0.75,0.75 0,0.296875 -0.09375,0.625 -0.28125,0.828125 -0.21875,0.265625 -0.421875,0.28125 -0.765625,0.3125 -0.171875,0.015625 -0.1875,0.015625 -0.21875,0.015625 -0.015625,0 -0.078125,0.015625 -0.078125,0.09375 0,0.09375 0.0625,0.09375 0.1875,0.09375 z m 0,0"
               id="id-dbe45ceb-f452-4007-939d-6e022cbeff66" />
          </symbol>
        </g>
      </defs>
      <g
         id="id-0bc42a40-8a3d-4ff7-83fb-ef8d27a91edc"
         transform="translate(-149.196,-127.258)"
         style="fill:#0007ff;fill-opacity:1">
        <g
           style="fill:#0007ff;fill-opacity:1"
           id="id-b2956cfd-e204-442b-8f6b-81fed96dd066">
          <g
             transform="translate(148.712,134.765)"
             id="g5545"
             style="fill:#0007ff;fill-opacity:1">
            <path
               style="fill:#0007ff;fill-opacity:1;stroke:none"
               d="m 2.21875,-2.171875 c 0.65625,0 1.3125,-0.0625 1.734375,-0.203125 C 4.796875,-2.65625 4.9375,-3.234375 4.9375,-3.546875 4.9375,-4.125 4.390625,-4.5 3.5625,-4.5 c -1.796875,0 -3.078125,1.234375 -3.078125,2.78125 0,1.15625 0.765625,1.796875 2.09375,1.796875 0.25,0 0.9375,-0.015625 1.53125,-0.234375 0.578125,-0.234375 0.984375,-0.640625 0.984375,-0.765625 0,-0.078125 -0.15625,-0.25 -0.25,-0.25 -0.0625,0 -0.078125,0.03125 -0.15625,0.109375 C 4.15625,-0.5 3.375,-0.28125 2.609375,-0.28125 1.890625,-0.28125 1.625,-0.671875 1.625,-1.25 c 0,-0.1875 0.046875,-0.515625 0.15625,-0.921875 z M 1.859375,-2.53125 c 0.1875,-0.734375 0.421875,-1 0.59375,-1.15625 0.34375,-0.34375 0.8125,-0.453125 1.109375,-0.453125 0.359375,0 0.78125,0.15625 0.78125,0.609375 0,1 -1.515625,1 -2.484375,1 z m 0,0"
               id="id-174d7d04-807e-4bf5-86be-8e1f9205e842" />
          </g>
        </g>
        <g
           style="fill:#0007ff;fill-opacity:1"
           id="id-3902befc-be1f-44ad-9421-23f61356e2e2">
          <g
             transform="translate(154.228,131.149)"
             id="g5549"
             style="fill:#0007ff;fill-opacity:1">
            <path
               style="fill:#0007ff;fill-opacity:1;stroke:none"
               d="m 2.015625,-3.296875 c 0.0625,-0.109375 0.0625,-0.171875 0.0625,-0.21875 0,-0.21875 -0.1875,-0.375 -0.40625,-0.375 -0.265625,0 -0.34375,0.21875 -0.375,0.328125 L 0.375,-0.546875 c -0.015625,0.015625 -0.046875,0.09375 -0.046875,0.109375 0,0.078125 0.21875,0.15625 0.28125,0.15625 0.046875,0 0.046875,-0.015625 0.09375,-0.125 z m 0,0"
               id="id-a7ecb197-7303-4141-936c-0e4186ebaa7e" />
          </g>
        </g>
        <g
           style="fill:#0007ff;fill-opacity:1"
           id="id-642ba006-3488-4dc7-9e77-627e2ec93cf1">
          <g
             transform="translate(154.228,137.237)"
             id="g5553"
             style="fill:#0007ff;fill-opacity:1">
            <path
               style="fill:#0007ff;fill-opacity:1;stroke:none"
               d="m 1.90625,-2.328125 c 0.546875,0 0.9375,0.375 0.9375,1.125 0,0.859375 -0.515625,1.125 -0.90625,1.125 -0.28125,0 -0.90625,-0.078125 -1.1875,-0.5 0.328125,0 0.40625,-0.234375 0.40625,-0.390625 0,-0.21875 -0.171875,-0.375 -0.390625,-0.375 -0.1875,0 -0.390625,0.125 -0.390625,0.40625 0,0.65625 0.71875,1.078125 1.5625,1.078125 0.96875,0 1.640625,-0.65625 1.640625,-1.34375 0,-0.546875 -0.4375,-1.09375 -1.203125,-1.25 0.71875,-0.265625 0.984375,-0.78125 0.984375,-1.21875 0,-0.546875 -0.625,-0.953125 -1.40625,-0.953125 -0.765625,0 -1.359375,0.375 -1.359375,0.9375 0,0.234375 0.15625,0.359375 0.359375,0.359375 0.21875,0 0.359375,-0.15625 0.359375,-0.34375 0,-0.203125 -0.140625,-0.359375 -0.359375,-0.375 0.25,-0.296875 0.71875,-0.375 0.984375,-0.375 0.3125,0 0.75,0.15625 0.75,0.75 0,0.296875 -0.09375,0.625 -0.28125,0.828125 -0.21875,0.265625 -0.421875,0.28125 -0.765625,0.3125 -0.171875,0.015625 -0.1875,0.015625 -0.21875,0.015625 -0.015625,0 -0.078125,0.015625 -0.078125,0.09375 0,0.09375 0.0625,0.09375 0.1875,0.09375 z m 0,0"
               id="id-0227913c-d8b7-4f8a-a5aa-1e779b1b945a" />
          </g>
        </g>
      </g>
    </g>
  </g>
</svg>
