<?xml version="1.0" encoding="UTF-8" standalone="no"?>
<!-- Created with Inkscape (http://www.inkscape.org/) -->

<svg
   width="109.40665mm"
   height="95.898933mm"
   viewBox="0 0 109.40665 95.898933"
   version="1.1"
   id="svg5"
   sodipodi:docname="Omegadelta.svg"
   inkscape:version="1.1 (1:1.1+202105261517+ce6663b3b7)"
   xmlns:inkscape="http://www.inkscape.org/namespaces/inkscape"
   xmlns:sodipodi="http://sodipodi.sourceforge.net/DTD/sodipodi-0.dtd"
   xmlns="http://www.w3.org/2000/svg"
   xmlns:svg="http://www.w3.org/2000/svg"
   xmlns:ns1="http://www.iki.fi/pav/software/textext/">
  <sodipodi:namedview
     id="namedview7"
     pagecolor="#ffffff"
     bordercolor="#666666"
     borderopacity="1.0"
     inkscape:pageshadow="2"
     inkscape:pageopacity="0.0"
     inkscape:pagecheckerboard="0"
     inkscape:document-units="mm"
     showgrid="false"
     inkscape:snap-smooth-nodes="false"
     inkscape:snap-center="true"
     inkscape:zoom="0.75187991"
     inkscape:cx="55.859984"
     inkscape:cy="201.49494"
     inkscape:window-width="1848"
     inkscape:window-height="1016"
     inkscape:window-x="72"
     inkscape:window-y="27"
     inkscape:window-maximized="1"
     inkscape:current-layer="layer1"
     fit-margin-top="2"
     fit-margin-left="2"
     fit-margin-right="2"
     fit-margin-bottom="2" />
  <defs
     id="defs2">
    <marker
       style="overflow:visible"
       id="Arrow1Mstart"
       refX="0"
       refY="0"
       orient="auto"
       inkscape:stockid="Arrow1Mstart"
       inkscape:isstock="true">
      <path
         transform="matrix(0.4,0,0,0.4,4,0)"
         style="fill:context-stroke;fill-rule:evenodd;stroke:context-stroke;stroke-width:1pt"
         d="M 0,0 5,-5 -12.5,0 5,5 Z"
         id="path1136" />
    </marker>
    <marker
       style="overflow:visible"
       id="marker4457"
       refX="0"
       refY="0"
       orient="auto"
       inkscape:stockid="Arrow1Mend"
       inkscape:isstock="true">
      <path
         transform="matrix(-0.4,0,0,-0.4,-4,0)"
         style="fill:context-stroke;fill-rule:evenodd;stroke:context-stroke;stroke-width:1pt"
         d="M 0,0 5,-5 -12.5,0 5,5 Z"
         id="path4455" />
    </marker>
    <marker
       style="overflow:visible"
       id="Arrow1Mend"
       refX="0"
       refY="0"
       orient="auto"
       inkscape:stockid="Arrow1Mend"
       inkscape:isstock="true">
      <path
         transform="matrix(-0.4,0,0,-0.4,-4,0)"
         style="fill:context-stroke;fill-rule:evenodd;stroke:context-stroke;stroke-width:1pt"
         d="M 0,0 5,-5 -12.5,0 5,5 Z"
         id="path1139" />
    </marker>
    <marker
       style="overflow:visible"
       id="marker3826"
       refX="0"
       refY="0"
       orient="auto"
       inkscape:stockid="Arrow1Lend"
       inkscape:isstock="true">
      <path
         transform="matrix(-0.8,0,0,-0.8,-10,0)"
         style="fill:context-stroke;fill-rule:evenodd;stroke:context-stroke;stroke-width:1pt"
         d="M 0,0 5,-5 -12.5,0 5,5 Z"
         id="path3824" />
    </marker>
    <marker
       style="overflow:visible"
       id="Arrow1Lend"
       refX="0"
       refY="0"
       orient="auto"
       inkscape:stockid="Arrow1Lend"
       inkscape:isstock="true">
      <path
         transform="matrix(-0.8,0,0,-0.8,-10,0)"
         style="fill:context-stroke;fill-rule:evenodd;stroke:context-stroke;stroke-width:1pt"
         d="M 0,0 5,-5 -12.5,0 5,5 Z"
         id="path1133" />
    </marker>
    <marker
       style="overflow:visible"
       id="Arrow1Send"
       refX="0"
       refY="0"
       orient="auto"
       inkscape:stockid="Arrow1Send"
       inkscape:isstock="true">
      <path
         transform="matrix(-0.2,0,0,-0.2,-1.2,0)"
         style="fill:context-stroke;fill-rule:evenodd;stroke:context-stroke;stroke-width:1pt"
         d="M 0,0 5,-5 -12.5,0 5,5 Z"
         id="path1145" />
    </marker>
  </defs>
  <g
     inkscape:label="Layer 1"
     inkscape:groupmode="layer"
     id="layer1"
     transform="translate(-49.219309,-38.681488)">
    <ellipse
       style="fill:#c2c0ff;fill-opacity:0.0120897;stroke:#000000;stroke-width:0.555625;stroke-linecap:round;stroke-linejoin:round;stroke-miterlimit:4;stroke-dasharray:none;stroke-opacity:1;paint-order:stroke fill markers"
       id="path892"
       cx="45.207386"
       cy="134.93503"
       rx="17.002026"
       ry="38.816669"
       transform="rotate(-40)" />
    <g
       transform="matrix(0.705556,0,0,0.705556,148.50615,73.835677)"
       ns1:version="1.3.1"
       ns1:texconverter="pdflatex"
       ns1:pdfconverter="inkscape"
       ns1:text="$\\Gamma_+$"
       ns1:preamble="/home/tom/.config/inkscape/extensions/textext/default_packages.tex"
       ns1:scale="1.9999999877513703"
       ns1:alignment="middle center"
       ns1:jacobian_sqrt="0.705556"
       id="g3170">
      <defs
         id="id-dfb9d3c8-4f2c-4f7a-8660-353a00bc12a2">
        <g
           id="id-39bd58f4-ffc4-48bc-b519-b3f3e272ddc8">
          <symbol
             overflow="visible"
             id="id-d2c0ee89-b4ed-46ae-a02d-22ad4834d3d9">
            <path
               style="stroke:none;stroke-width:0"
               d=""
               id="id-5c1abb05-65ae-4654-a72c-cda108659a73" />
          </symbol>
          <symbol
             overflow="visible"
             id="id-d7098a56-98ee-47e4-9e97-0f427d81b761">
            <path
               style="stroke:none;stroke-width:0"
               d="m 5.515625,-6.78125 h -5.1875 v 0.3125 H 0.5625 c 0.765625,0 0.796875,0.109375 0.796875,0.46875 v 5.21875 c 0,0.359375 -0.03125,0.46875 -0.796875,0.46875 H 0.328125 V 0 c 0.34375,-0.03125 1.125,-0.03125 1.515625,-0.03125 0.40625,0 1.3125,0 1.671875,0.03125 V -0.3125 H 3.1875 C 2.25,-0.3125 2.25,-0.4375 2.25,-0.78125 v -5.296875 c 0,-0.328125 0.015625,-0.390625 0.484375,-0.390625 h 1.03125 c 1.421875,0 1.625,0.59375 1.78125,1.9375 h 0.25 z m 0,0"
               id="id-027e306c-9068-49b9-bded-ea4c92f9a0e4" />
          </symbol>
          <symbol
             overflow="visible"
             id="id-d90129b0-401a-4c95-b552-b9734b9c6c2a">
            <path
               style="stroke:none;stroke-width:0"
               d=""
               id="id-e42fe40f-c712-4dd1-85a6-6168d811f7d7" />
          </symbol>
          <symbol
             overflow="visible"
             id="id-f00e251c-2e16-4d4a-9f76-86c3edfedee1">
            <path
               style="stroke:none;stroke-width:0"
               d="m 3.21875,-1.578125 h 2.140625 c 0.09375,0 0.25,0 0.25,-0.15625 0,-0.1875 -0.15625,-0.1875 -0.25,-0.1875 H 3.21875 V -4.0625 c 0,-0.078125 0,-0.25 -0.15625,-0.25 -0.171875,0 -0.171875,0.15625 -0.171875,0.25 v 2.140625 H 0.75 c -0.09375,0 -0.265625,0 -0.265625,0.171875 0,0.171875 0.15625,0.171875 0.265625,0.171875 H 2.890625 V 0.5625 c 0,0.09375 0,0.265625 0.15625,0.265625 0.171875,0 0.171875,-0.171875 0.171875,-0.265625 z m 0,0"
               id="id-f9a6fd48-426a-46be-95db-6e56866cad37" />
          </symbol>
        </g>
      </defs>
      <g
         id="id-6e59c0d2-477c-4bc9-ae0c-0d1df98d873f"
         transform="translate(-149.04,-127.984)">
        <g
           style="fill:#000000;fill-opacity:1"
           id="id-0bed4f1c-3d25-41e2-be5b-39f080bdcb39">
          <g
             transform="translate(148.712,134.765)"
             id="g3162">
            <path
               style="stroke:none;stroke-width:0"
               d="m 5.515625,-6.78125 h -5.1875 v 0.3125 H 0.5625 c 0.765625,0 0.796875,0.109375 0.796875,0.46875 v 5.21875 c 0,0.359375 -0.03125,0.46875 -0.796875,0.46875 H 0.328125 V 0 c 0.34375,-0.03125 1.125,-0.03125 1.515625,-0.03125 0.40625,0 1.3125,0 1.671875,0.03125 V -0.3125 H 3.1875 C 2.25,-0.3125 2.25,-0.4375 2.25,-0.78125 v -5.296875 c 0,-0.328125 0.015625,-0.390625 0.484375,-0.390625 h 1.03125 c 1.421875,0 1.625,0.59375 1.78125,1.9375 h 0.25 z m 0,0"
               id="id-39d18704-7e4f-440b-95f9-fd662dc35b1b" />
          </g>
        </g>
        <g
           style="fill:#000000;fill-opacity:1"
           id="id-c76052c1-a83f-44d4-b29c-d825dec3da50">
          <g
             transform="translate(154.939,136.259)"
             id="g3166">
            <path
               style="stroke:none;stroke-width:0"
               d="m 3.21875,-1.578125 h 2.140625 c 0.09375,0 0.25,0 0.25,-0.15625 0,-0.1875 -0.15625,-0.1875 -0.25,-0.1875 H 3.21875 V -4.0625 c 0,-0.078125 0,-0.25 -0.15625,-0.25 -0.171875,0 -0.171875,0.15625 -0.171875,0.25 v 2.140625 H 0.75 c -0.09375,0 -0.265625,0 -0.265625,0.171875 0,0.171875 0.15625,0.171875 0.265625,0.171875 H 2.890625 V 0.5625 c 0,0.09375 0,0.265625 0.15625,0.265625 0.171875,0 0.171875,-0.171875 0.171875,-0.265625 z m 0,0"
               id="id-8903db7c-7e1b-4949-8974-091107bdee44" />
          </g>
        </g>
      </g>
    </g>
    <ellipse
       style="fill:#c2c0ff;fill-opacity:0.0120897;stroke:#000000;stroke-width:0.555625;stroke-linecap:round;stroke-linejoin:round;stroke-miterlimit:4;stroke-dasharray:none;stroke-opacity:1;paint-order:stroke fill markers"
       id="ellipse976"
       transform="rotate(-40)"
       sodipodi:type="arc"
       sodipodi:cx="4.2678795"
       sodipodi:cy="134.93503"
       sodipodi:rx="17.002026"
       sodipodi:ry="38.816669"
       sodipodi:start="1.5634395"
       sodipodi:end="4.7138727"
       sodipodi:open="true"
       sodipodi:arc-type="arc"
       d="M 4.3929593,173.75065 A 17.002026,38.816669 0 0 1 -10.418674,154.49142 17.002026,38.816669 0 0 1 -10.468729,115.5759 17.002026,38.816669 0 0 1 4.2931057,96.118401" />
    <path
       style="fill:none;fill-rule:evenodd;stroke:#000000;stroke-width:0.555625;stroke-linecap:butt;stroke-linejoin:miter;stroke-miterlimit:4;stroke-dasharray:none;stroke-opacity:1"
       d="M 65.053075,70.887594 96.414549,44.572193"
       id="path1011" />
    <path
       style="fill:none;fill-rule:evenodd;stroke:#000000;stroke-width:0.555625;stroke-linecap:butt;stroke-linejoin:miter;stroke-miterlimit:4;stroke-dasharray:none;stroke-opacity:1"
       d="M 114.95483,130.35819 146.3163,104.0428"
       id="path1013" />
    <path
       style="fill:none;fill-rule:evenodd;stroke:#000000;stroke-width:0.555625;stroke-linecap:butt;stroke-linejoin:miter;stroke-miterlimit:4;stroke-dasharray:none;stroke-opacity:1;marker-end:url(#Arrow1Mend)"
       d="m 121.36543,74.307482 25.56341,-21.45025"
       id="path1128" />
    <circle
       style="fill:#000000;fill-opacity:1;stroke:none;stroke-width:0.264999;stroke-linecap:round;stroke-linejoin:round;stroke-opacity:1;paint-order:stroke fill markers"
       id="path2011"
       cx="24.737621"
       cy="134.93503"
       r="2.1816106"
       transform="rotate(-40)" />
    <g
       transform="matrix(0.705556,0,0,0.705556,141.41689,43.756643)"
       ns1:version="1.3.1"
       ns1:texconverter="pdflatex"
       ns1:pdfconverter="inkscape"
       ns1:text="$+\\boldsymbol{n}$"
       ns1:preamble="/home/tom/.config/inkscape/extensions/textext/default_packages.tex"
       ns1:scale="1.9999999877513703"
       ns1:alignment="middle center"
       ns1:jacobian_sqrt="0.705556"
       id="g2364">
      <defs
         id="id-0033c4b5-e30d-44dd-85f0-cc1dbbeec501">
        <g
           id="id-f3b91334-7676-4320-8959-ca8d319b3e1b">
          <symbol
             overflow="visible"
             id="id-274310a3-d660-48d1-bec7-572481e2206b">
            <path
               style="stroke:none"
               d=""
               id="id-5b976721-4962-4c70-942e-9dff319baf55" />
          </symbol>
          <symbol
             overflow="visible"
             id="id-6b716c71-274d-4158-89d2-a0a2a3e0c8a6">
            <path
               style="stroke:none"
               d="m 4.078125,-2.296875 h 2.78125 C 7,-2.296875 7.1875,-2.296875 7.1875,-2.5 7.1875,-2.6875 7,-2.6875 6.859375,-2.6875 h -2.78125 v -2.796875 c 0,-0.140625 0,-0.328125 -0.203125,-0.328125 -0.203125,0 -0.203125,0.1875 -0.203125,0.328125 V -2.6875 h -2.78125 c -0.140625,0 -0.328125,0 -0.328125,0.1875 0,0.203125 0.1875,0.203125 0.328125,0.203125 h 2.78125 V 0.5 c 0,0.140625 0,0.328125 0.203125,0.328125 0.203125,0 0.203125,-0.1875 0.203125,-0.328125 z m 0,0"
               id="id-b905698e-803e-4a7b-a5bf-89de3ae9614c" />
          </symbol>
          <symbol
             overflow="visible"
             id="id-936ef34f-0082-4b97-9503-f1fd51fbb544">
            <path
               style="stroke:none"
               d=""
               id="id-d8f7a0b9-0a64-4ccd-9037-d9697d9679bd" />
          </symbol>
          <symbol
             overflow="visible"
             id="id-3614f90a-f89b-4ecd-89c0-0cf0104f8ffa">
            <path
               style="stroke:none"
               d="M 2.796875,-3.75 C 2.65625,-4.25 2.109375,-4.5 1.5625,-4.5 1.203125,-4.5 0.921875,-4.296875 0.703125,-3.9375 0.453125,-3.53125 0.3125,-3 0.3125,-2.953125 c 0,0.140625 0.15625,0.140625 0.25,0.140625 0.109375,0 0.140625,0 0.1875,-0.046875 C 0.78125,-2.875 0.78125,-2.90625 0.84375,-3.15625 1.03125,-3.921875 1.25,-4.140625 1.515625,-4.140625 c 0.15625,0 0.234375,0.09375 0.234375,0.359375 0,0.171875 -0.046875,0.328125 -0.140625,0.734375 C 1.53125,-2.765625 1.4375,-2.375 1.390625,-2.15625 L 1.03125,-0.75 C 1,-0.625 0.953125,-0.421875 0.953125,-0.359375 c 0,0.203125 0.15625,0.4375 0.46875,0.4375 0.515625,0 0.625,-0.453125 0.703125,-0.75 0.09375,-0.375 0.171875,-0.6875 0.28125,-1.125 0.03125,-0.125 0.28125,-1.15625 0.3125,-1.1875 0,-0.0625 0.28125,-0.5 0.609375,-0.78125 0.28125,-0.21875 0.609375,-0.375 1.03125,-0.375 0.25,0 0.5,0.09375 0.5,0.578125 0,0.578125 -0.4375,1.734375 -0.625,2.234375 -0.125,0.265625 -0.140625,0.34375 -0.140625,0.515625 0,0.578125 0.578125,0.890625 1.125,0.890625 1.046875,0 1.546875,-1.359375 1.546875,-1.546875 0,-0.140625 -0.140625,-0.140625 -0.234375,-0.140625 -0.125,0 -0.1875,0 -0.234375,0.125 C 5.96875,-0.375 5.4375,-0.28125 5.28125,-0.28125 c -0.078125,0 -0.171875,0 -0.171875,-0.203125 0,-0.234375 0.09375,-0.484375 0.1875,-0.734375 0.171875,-0.40625 0.625,-1.578125 0.625,-2.125 C 5.921875,-4.265625 5.15625,-4.5 4.4375,-4.5 4.234375,-4.5 3.5,-4.5 2.796875,-3.75 Z m 0,0"
               id="id-3cce105c-9269-4d59-9bac-0166a80b4ef9" />
          </symbol>
        </g>
      </defs>
      <g
         id="id-e6981546-442a-4dbe-a6a6-9622f2d6b0d7"
         transform="translate(-149.275,-128.952)">
        <g
           style="fill:#000000;fill-opacity:1"
           id="id-bb6ed8b0-cbe2-47e5-827e-4cb91c208e98">
          <g
             transform="translate(148.712,134.765)"
             id="g2445">
            <path
               style="stroke:none"
               d="m 4.078125,-2.296875 h 2.78125 C 7,-2.296875 7.1875,-2.296875 7.1875,-2.5 7.1875,-2.6875 7,-2.6875 6.859375,-2.6875 h -2.78125 v -2.796875 c 0,-0.140625 0,-0.328125 -0.203125,-0.328125 -0.203125,0 -0.203125,0.1875 -0.203125,0.328125 V -2.6875 h -2.78125 c -0.140625,0 -0.328125,0 -0.328125,0.1875 0,0.203125 0.1875,0.203125 0.328125,0.203125 h 2.78125 V 0.5 c 0,0.140625 0,0.328125 0.203125,0.328125 0.203125,0 0.203125,-0.1875 0.203125,-0.328125 z m 0,0"
               id="id-852c9acd-7426-4ef1-a04b-7dba51163523" />
          </g>
        </g>
        <g
           style="fill:#000000;fill-opacity:1"
           id="id-056cbad7-623c-4534-bc08-5bdbcb20c48b">
          <g
             transform="translate(156.461,134.765)"
             id="g2449">
            <path
               style="stroke:none"
               d="M 2.796875,-3.75 C 2.65625,-4.25 2.109375,-4.5 1.5625,-4.5 1.203125,-4.5 0.921875,-4.296875 0.703125,-3.9375 0.453125,-3.53125 0.3125,-3 0.3125,-2.953125 c 0,0.140625 0.15625,0.140625 0.25,0.140625 0.109375,0 0.140625,0 0.1875,-0.046875 C 0.78125,-2.875 0.78125,-2.90625 0.84375,-3.15625 1.03125,-3.921875 1.25,-4.140625 1.515625,-4.140625 c 0.15625,0 0.234375,0.09375 0.234375,0.359375 0,0.171875 -0.046875,0.328125 -0.140625,0.734375 C 1.53125,-2.765625 1.4375,-2.375 1.390625,-2.15625 L 1.03125,-0.75 C 1,-0.625 0.953125,-0.421875 0.953125,-0.359375 c 0,0.203125 0.15625,0.4375 0.46875,0.4375 0.515625,0 0.625,-0.453125 0.703125,-0.75 0.09375,-0.375 0.171875,-0.6875 0.28125,-1.125 0.03125,-0.125 0.28125,-1.15625 0.3125,-1.1875 0,-0.0625 0.28125,-0.5 0.609375,-0.78125 0.28125,-0.21875 0.609375,-0.375 1.03125,-0.375 0.25,0 0.5,0.09375 0.5,0.578125 0,0.578125 -0.4375,1.734375 -0.625,2.234375 -0.125,0.265625 -0.140625,0.34375 -0.140625,0.515625 0,0.578125 0.578125,0.890625 1.125,0.890625 1.046875,0 1.546875,-1.359375 1.546875,-1.546875 0,-0.140625 -0.140625,-0.140625 -0.234375,-0.140625 -0.125,0 -0.1875,0 -0.234375,0.125 C 5.96875,-0.375 5.4375,-0.28125 5.28125,-0.28125 c -0.078125,0 -0.171875,0 -0.171875,-0.203125 0,-0.234375 0.09375,-0.484375 0.1875,-0.734375 0.171875,-0.40625 0.625,-1.578125 0.625,-2.125 C 5.921875,-4.265625 5.15625,-4.5 4.4375,-4.5 4.234375,-4.5 3.5,-4.5 2.796875,-3.75 Z m 0,0"
               id="id-b695d678-59d6-4062-827a-d0809328a581" />
          </g>
        </g>
      </g>
    </g>
    <g
       transform="matrix(0.705556,0,0,0.705556,61.146067,125.26106)"
       ns1:version="1.3.1"
       ns1:texconverter="pdflatex"
       ns1:pdfconverter="inkscape"
       ns1:text="$-\\boldsymbol{n}$"
       ns1:preamble="/home/tom/.config/inkscape/extensions/textext/default_packages.tex"
       ns1:scale="1.9999999877513703"
       ns1:alignment="middle center"
       ns1:jacobian_sqrt="0.705556"
       id="g2526">
      <defs
         id="id-44448770-72fa-4c71-b0a5-1d55e2de7a4a">
        <g
           id="id-c4ddda22-2ed2-4751-8d46-2c3df40ab6dc">
          <symbol
             overflow="visible"
             id="id-d410e7ba-3659-422a-be81-7cd7e717e667">
            <path
               style="stroke:none"
               d=""
               id="id-4dffe8c2-d586-4ef7-ab6f-6cc7c4f8d2ff" />
          </symbol>
          <symbol
             overflow="visible"
             id="id-07409b7a-2755-4989-94c5-998e958073cb">
            <path
               style="stroke:none"
               d="m 6.5625,-2.296875 c 0.171875,0 0.359375,0 0.359375,-0.203125 0,-0.1875 -0.1875,-0.1875 -0.359375,-0.1875 H 1.171875 c -0.171875,0 -0.34375,0 -0.34375,0.1875 0,0.203125 0.171875,0.203125 0.34375,0.203125 z m 0,0"
               id="id-e413fb95-4f33-4827-a0bc-3ac0d96e4399" />
          </symbol>
          <symbol
             overflow="visible"
             id="id-52d6a99a-8a6f-4b2b-971b-bc747776aa2d">
            <path
               style="stroke:none"
               d=""
               id="id-9425eafe-4a66-41c8-ab9c-1596e5852722" />
          </symbol>
          <symbol
             overflow="visible"
             id="id-0bdaeec5-d51c-43fc-9fca-522317aa0303">
            <path
               style="stroke:none"
               d="M 2.796875,-3.75 C 2.65625,-4.25 2.109375,-4.5 1.5625,-4.5 1.203125,-4.5 0.921875,-4.296875 0.703125,-3.9375 0.453125,-3.53125 0.3125,-3 0.3125,-2.953125 c 0,0.140625 0.15625,0.140625 0.25,0.140625 0.109375,0 0.140625,0 0.1875,-0.046875 C 0.78125,-2.875 0.78125,-2.90625 0.84375,-3.15625 1.03125,-3.921875 1.25,-4.140625 1.515625,-4.140625 c 0.15625,0 0.234375,0.09375 0.234375,0.359375 0,0.171875 -0.046875,0.328125 -0.140625,0.734375 C 1.53125,-2.765625 1.4375,-2.375 1.390625,-2.15625 L 1.03125,-0.75 C 1,-0.625 0.953125,-0.421875 0.953125,-0.359375 c 0,0.203125 0.15625,0.4375 0.46875,0.4375 0.515625,0 0.625,-0.453125 0.703125,-0.75 0.09375,-0.375 0.171875,-0.6875 0.28125,-1.125 0.03125,-0.125 0.28125,-1.15625 0.3125,-1.1875 0,-0.0625 0.28125,-0.5 0.609375,-0.78125 0.28125,-0.21875 0.609375,-0.375 1.03125,-0.375 0.25,0 0.5,0.09375 0.5,0.578125 0,0.578125 -0.4375,1.734375 -0.625,2.234375 -0.125,0.265625 -0.140625,0.34375 -0.140625,0.515625 0,0.578125 0.578125,0.890625 1.125,0.890625 1.046875,0 1.546875,-1.359375 1.546875,-1.546875 0,-0.140625 -0.140625,-0.140625 -0.234375,-0.140625 -0.125,0 -0.1875,0 -0.234375,0.125 C 5.96875,-0.375 5.4375,-0.28125 5.28125,-0.28125 c -0.078125,0 -0.171875,0 -0.171875,-0.203125 0,-0.234375 0.09375,-0.484375 0.1875,-0.734375 0.171875,-0.40625 0.625,-1.578125 0.625,-2.125 C 5.921875,-4.265625 5.15625,-4.5 4.4375,-4.5 4.234375,-4.5 3.5,-4.5 2.796875,-3.75 Z m 0,0"
               id="id-4c2ac85c-3808-47f1-b128-0138e2e16504" />
          </symbol>
        </g>
      </defs>
      <g
         id="id-6ae5588f-b700-4d33-ac5f-8daaaf936782"
         transform="translate(-149.54,-130.265)">
        <g
           style="fill:#000000;fill-opacity:1"
           id="id-f494123a-017e-4144-ab42-b62e3b5cef2f">
          <g
             transform="translate(148.712,134.765)"
             id="g2619">
            <path
               style="stroke:none"
               d="m 6.5625,-2.296875 c 0.171875,0 0.359375,0 0.359375,-0.203125 0,-0.1875 -0.1875,-0.1875 -0.359375,-0.1875 H 1.171875 c -0.171875,0 -0.34375,0 -0.34375,0.1875 0,0.203125 0.171875,0.203125 0.34375,0.203125 z m 0,0"
               id="id-2097da6c-8c09-4892-a649-8c4a9751b054" />
          </g>
        </g>
        <g
           style="fill:#000000;fill-opacity:1"
           id="id-4cff22da-1810-4171-92c0-0d76a4673e0d">
          <g
             transform="translate(156.461,134.765)"
             id="g2623">
            <path
               style="stroke:none"
               d="M 2.796875,-3.75 C 2.65625,-4.25 2.109375,-4.5 1.5625,-4.5 1.203125,-4.5 0.921875,-4.296875 0.703125,-3.9375 0.453125,-3.53125 0.3125,-3 0.3125,-2.953125 c 0,0.140625 0.15625,0.140625 0.25,0.140625 0.109375,0 0.140625,0 0.1875,-0.046875 C 0.78125,-2.875 0.78125,-2.90625 0.84375,-3.15625 1.03125,-3.921875 1.25,-4.140625 1.515625,-4.140625 c 0.15625,0 0.234375,0.09375 0.234375,0.359375 0,0.171875 -0.046875,0.328125 -0.140625,0.734375 C 1.53125,-2.765625 1.4375,-2.375 1.390625,-2.15625 L 1.03125,-0.75 C 1,-0.625 0.953125,-0.421875 0.953125,-0.359375 c 0,0.203125 0.15625,0.4375 0.46875,0.4375 0.515625,0 0.625,-0.453125 0.703125,-0.75 0.09375,-0.375 0.171875,-0.6875 0.28125,-1.125 0.03125,-0.125 0.28125,-1.15625 0.3125,-1.1875 0,-0.0625 0.28125,-0.5 0.609375,-0.78125 0.28125,-0.21875 0.609375,-0.375 1.03125,-0.375 0.25,0 0.5,0.09375 0.5,0.578125 0,0.578125 -0.4375,1.734375 -0.625,2.234375 -0.125,0.265625 -0.140625,0.34375 -0.140625,0.515625 0,0.578125 0.578125,0.890625 1.125,0.890625 1.046875,0 1.546875,-1.359375 1.546875,-1.546875 0,-0.140625 -0.140625,-0.140625 -0.234375,-0.140625 -0.125,0 -0.1875,0 -0.234375,0.125 C 5.96875,-0.375 5.4375,-0.28125 5.28125,-0.28125 c -0.078125,0 -0.171875,0 -0.171875,-0.203125 0,-0.234375 0.09375,-0.484375 0.1875,-0.734375 0.171875,-0.40625 0.625,-1.578125 0.625,-2.125 C 5.921875,-4.265625 5.15625,-4.5 4.4375,-4.5 4.234375,-4.5 3.5,-4.5 2.796875,-3.75 Z m 0,0"
               id="id-b34bc4ee-18f4-41a3-ba02-30e56c6d60b9" />
          </g>
        </g>
      </g>
    </g>
    <path
       style="fill:none;fill-rule:evenodd;stroke:#000000;stroke-width:0.555625;stroke-linecap:butt;stroke-linejoin:miter;stroke-miterlimit:4;stroke-dasharray:none;stroke-opacity:1;marker-end:url(#Arrow1Mend)"
       d="M 90.00395,100.62289 64.44054,122.07314"
       id="path2666" />
    <g
       transform="matrix(0.705556,0,0,0.705556,108.70207,91.629891)"
       ns1:version="1.3.1"
       ns1:texconverter="pdflatex"
       ns1:pdfconverter="inkscape"
       ns1:text="$\\boldsymbol{x}$"
       ns1:preamble="/home/tom/.config/inkscape/extensions/textext/default_packages.tex"
       ns1:scale="1.9999999877513703"
       ns1:alignment="middle center"
       ns1:jacobian_sqrt="0.705556"
       id="g2779">
      <defs
         id="id-1dc95d18-fd72-4dea-909d-6407f3ef6e52">
        <g
           id="id-b876a7ee-f3e4-4470-a2b2-455732a2dc65">
          <symbol
             overflow="visible"
             id="id-b67eecbf-643b-4988-a1ef-16f01bd32aa4">
            <path
               style="stroke:none;stroke-width:0"
               d=""
               id="id-ce0f4233-dd24-4012-bab2-8d711cd6b87f" />
          </symbol>
          <symbol
             overflow="visible"
             id="id-f7038e9d-12eb-470e-b5be-74a8e22135e8">
            <path
               style="stroke:none;stroke-width:0"
               d="m 5.34375,-4 c -0.359375,0.109375 -0.53125,0.4375 -0.53125,0.6875 0,0.21875 0.15625,0.46875 0.484375,0.46875 0.359375,0 0.71875,-0.296875 0.71875,-0.78125 C 6.015625,-4.15625 5.5,-4.5 4.890625,-4.5 4.3125,-4.5 3.953125,-4.078125 3.8125,-3.890625 3.5625,-4.3125 3.015625,-4.5 2.4375,-4.5 c -1.25,0 -1.921875,1.21875 -1.921875,1.546875 0,0.140625 0.140625,0.140625 0.234375,0.140625 0.125,0 0.1875,0 0.234375,-0.125 0.28125,-0.90625 1,-1.203125 1.40625,-1.203125 0.375,0 0.5625,0.171875 0.5625,0.484375 0,0.203125 -0.140625,0.75 -0.234375,1.109375 L 2.375,-1.1875 c -0.140625,0.609375 -0.5,0.90625 -0.84375,0.90625 -0.046875,0 -0.28125,0 -0.46875,-0.140625 0.359375,-0.109375 0.53125,-0.453125 0.53125,-0.6875 0,-0.21875 -0.171875,-0.46875 -0.5,-0.46875 -0.34375,0 -0.71875,0.296875 -0.71875,0.78125 0,0.53125 0.53125,0.875 1.140625,0.875 0.5625,0 0.9375,-0.421875 1.0625,-0.609375 0.25,0.421875 0.8125,0.609375 1.375,0.609375 1.265625,0 1.9375,-1.21875 1.9375,-1.546875 0,-0.140625 -0.15625,-0.140625 -0.234375,-0.140625 -0.125,0 -0.1875,0 -0.234375,0.125 -0.28125,0.90625 -1,1.203125 -1.421875,1.203125 -0.375,0 -0.546875,-0.171875 -0.546875,-0.5 0,-0.203125 0.125,-0.734375 0.21875,-1.109375 0.0625,-0.25 0.296875,-1.1875 0.34375,-1.34375 0.15625,-0.609375 0.5,-0.90625 0.84375,-0.90625 0.0625,0 0.28125,0 0.484375,0.140625 z m 0,0"
               id="id-63d98737-24e0-47e1-a5c4-9d0b5a9c5f5c" />
          </symbol>
        </g>
      </defs>
      <g
         id="id-239215d2-6d44-46b6-9755-db5af610d708"
         transform="translate(-149.087,-130.265)">
        <g
           style="fill:#000000;fill-opacity:1"
           id="id-6996e637-cf8b-4b34-a499-252db38ee1c3">
          <g
             transform="translate(148.712,134.765)"
             id="g2775">
            <path
               style="stroke:none;stroke-width:0"
               d="m 5.34375,-4 c -0.359375,0.109375 -0.53125,0.4375 -0.53125,0.6875 0,0.21875 0.15625,0.46875 0.484375,0.46875 0.359375,0 0.71875,-0.296875 0.71875,-0.78125 C 6.015625,-4.15625 5.5,-4.5 4.890625,-4.5 4.3125,-4.5 3.953125,-4.078125 3.8125,-3.890625 3.5625,-4.3125 3.015625,-4.5 2.4375,-4.5 c -1.25,0 -1.921875,1.21875 -1.921875,1.546875 0,0.140625 0.140625,0.140625 0.234375,0.140625 0.125,0 0.1875,0 0.234375,-0.125 0.28125,-0.90625 1,-1.203125 1.40625,-1.203125 0.375,0 0.5625,0.171875 0.5625,0.484375 0,0.203125 -0.140625,0.75 -0.234375,1.109375 L 2.375,-1.1875 c -0.140625,0.609375 -0.5,0.90625 -0.84375,0.90625 -0.046875,0 -0.28125,0 -0.46875,-0.140625 0.359375,-0.109375 0.53125,-0.453125 0.53125,-0.6875 0,-0.21875 -0.171875,-0.46875 -0.5,-0.46875 -0.34375,0 -0.71875,0.296875 -0.71875,0.78125 0,0.53125 0.53125,0.875 1.140625,0.875 0.5625,0 0.9375,-0.421875 1.0625,-0.609375 0.25,0.421875 0.8125,0.609375 1.375,0.609375 1.265625,0 1.9375,-1.21875 1.9375,-1.546875 0,-0.140625 -0.15625,-0.140625 -0.234375,-0.140625 -0.125,0 -0.1875,0 -0.234375,0.125 -0.28125,0.90625 -1,1.203125 -1.421875,1.203125 -0.375,0 -0.546875,-0.171875 -0.546875,-0.5 0,-0.203125 0.125,-0.734375 0.21875,-1.109375 0.0625,-0.25 0.296875,-1.1875 0.34375,-1.34375 0.15625,-0.609375 0.5,-0.90625 0.84375,-0.90625 0.0625,0 0.28125,0 0.484375,0.140625 z m 0,0"
               id="id-4f433867-de16-4fd8-ae2d-1e7c9bf31793" />
          </g>
        </g>
      </g>
    </g>
    <g
       transform="matrix(0.705556,0,0,0.705556,142.47757,118.36868)"
       ns1:version="1.3.1"
       ns1:texconverter="pdflatex"
       ns1:pdfconverter="inkscape"
       ns1:text="$\\Gamma_\\delta$"
       ns1:preamble="/home/tom/.config/inkscape/extensions/textext/default_packages.tex"
       ns1:scale="1.9999999877513703"
       ns1:alignment="middle center"
       ns1:jacobian_sqrt="0.705556"
       id="g2953">
      <defs
         id="id-907aeec7-8607-449c-9690-0febfc7de637">
        <g
           id="id-15a7129c-2028-4d38-97cb-b232b4aa8362">
          <symbol
             overflow="visible"
             id="id-ff15892d-8e70-486b-9e52-b668b1ba04e8">
            <path
               style="stroke:none;stroke-width:0"
               d=""
               id="id-273a521e-2831-4022-8bd1-57c081bfb405" />
          </symbol>
          <symbol
             overflow="visible"
             id="id-4af5cd51-08ad-49a9-90b9-bcae9e2bca87">
            <path
               style="stroke:none;stroke-width:0"
               d="m 5.515625,-6.78125 h -5.1875 v 0.3125 H 0.5625 c 0.765625,0 0.796875,0.109375 0.796875,0.46875 v 5.21875 c 0,0.359375 -0.03125,0.46875 -0.796875,0.46875 H 0.328125 V 0 c 0.34375,-0.03125 1.125,-0.03125 1.515625,-0.03125 0.40625,0 1.3125,0 1.671875,0.03125 V -0.3125 H 3.1875 C 2.25,-0.3125 2.25,-0.4375 2.25,-0.78125 v -5.296875 c 0,-0.328125 0.015625,-0.390625 0.484375,-0.390625 h 1.03125 c 1.421875,0 1.625,0.59375 1.78125,1.9375 h 0.25 z m 0,0"
               id="id-8deb515c-42e8-43ab-a4d4-95566efa0133" />
          </symbol>
          <symbol
             overflow="visible"
             id="id-2f08ed2b-a23b-4626-9bb8-c5e1caca49bc">
            <path
               style="stroke:none;stroke-width:0"
               d=""
               id="id-c6e6c2f7-bca6-4f6c-b220-d8df0a9a5e37" />
          </symbol>
          <symbol
             overflow="visible"
             id="id-16288dd5-7a73-4e57-b8a7-af5d2e5f38c6">
            <path
               style="stroke:none;stroke-width:0"
               d="m 2.0625,-3.03125 c -1.046875,0.265625 -1.640625,1.15625 -1.640625,1.890625 0,0.75 0.5625,1.21875 1.25,1.21875 0.84375,0 1.5,-0.984375 1.5,-2 C 3.171875,-2.59375 2.8125,-3 2.59375,-3.234375 2.34375,-3.53125 1.8125,-4.09375 1.8125,-4.421875 c 0,-0.09375 0.109375,-0.28125 0.390625,-0.28125 0.234375,0 0.4375,0.109375 0.578125,0.1875 0.0625,0.03125 0.3125,0.1875 0.421875,0.1875 C 3.375,-4.328125 3.5,-4.484375 3.5,-4.625 3.5,-4.796875 3.40625,-4.8125 3.03125,-4.890625 2.953125,-4.90625 2.625,-4.96875 2.40625,-4.96875 c -0.53125,0 -0.8125,0.296875 -0.8125,0.71875 0,0.375 0.21875,0.796875 0.46875,1.21875 z m 0.109375,0.1875 C 2.375,-2.53125 2.625,-2.125 2.625,-1.625 c 0,0.578125 -0.34375,1.515625 -0.9375,1.515625 -0.375,0 -0.75,-0.25 -0.75,-0.828125 0,-0.46875 0.265625,-1.671875 1.234375,-1.90625 z m 0,0"
               id="id-7843b223-30df-47df-8c17-04903f9ffe83" />
          </symbol>
        </g>
      </defs>
      <g
         id="id-a121ab08-fa54-4d32-9cb1-e1c5ed2dce32"
         transform="translate(-149.04,-127.984)">
        <g
           style="fill:#000000;fill-opacity:1"
           id="id-ad53d0e8-f533-4e4e-bc24-25d9a5ec531a">
          <g
             transform="translate(148.712,134.765)"
             id="g2945">
            <path
               style="stroke:none;stroke-width:0"
               d="m 5.515625,-6.78125 h -5.1875 v 0.3125 H 0.5625 c 0.765625,0 0.796875,0.109375 0.796875,0.46875 v 5.21875 c 0,0.359375 -0.03125,0.46875 -0.796875,0.46875 H 0.328125 V 0 c 0.34375,-0.03125 1.125,-0.03125 1.515625,-0.03125 0.40625,0 1.3125,0 1.671875,0.03125 V -0.3125 H 3.1875 C 2.25,-0.3125 2.25,-0.4375 2.25,-0.78125 v -5.296875 c 0,-0.328125 0.015625,-0.390625 0.484375,-0.390625 h 1.03125 c 1.421875,0 1.625,0.59375 1.78125,1.9375 h 0.25 z m 0,0"
               id="id-0e5220d0-4fd5-464d-be54-f9eb696bb50b" />
          </g>
        </g>
        <g
           style="fill:#000000;fill-opacity:1"
           id="id-b9c90ddd-11ba-490e-9673-16821ac3b2eb">
          <g
             transform="translate(154.939,136.259)"
             id="g2949">
            <path
               style="stroke:none;stroke-width:0"
               d="m 2.0625,-3.03125 c -1.046875,0.265625 -1.640625,1.15625 -1.640625,1.890625 0,0.75 0.5625,1.21875 1.25,1.21875 0.84375,0 1.5,-0.984375 1.5,-2 C 3.171875,-2.59375 2.8125,-3 2.59375,-3.234375 2.34375,-3.53125 1.8125,-4.09375 1.8125,-4.421875 c 0,-0.09375 0.109375,-0.28125 0.390625,-0.28125 0.234375,0 0.4375,0.109375 0.578125,0.1875 0.0625,0.03125 0.3125,0.1875 0.421875,0.1875 C 3.375,-4.328125 3.5,-4.484375 3.5,-4.625 3.5,-4.796875 3.40625,-4.8125 3.03125,-4.890625 2.953125,-4.90625 2.625,-4.96875 2.40625,-4.96875 c -0.53125,0 -0.8125,0.296875 -0.8125,0.71875 0,0.375 0.21875,0.796875 0.46875,1.21875 z m 0.109375,0.1875 C 2.375,-2.53125 2.625,-2.125 2.625,-1.625 c 0,0.578125 -0.34375,1.515625 -0.9375,1.515625 -0.375,0 -0.75,-0.25 -0.75,-0.828125 0,-0.46875 0.265625,-1.671875 1.234375,-1.90625 z m 0,0"
               id="id-c9656068-2717-4f63-9b92-edb465c2b2e8" />
          </g>
        </g>
      </g>
    </g>
    <g
       transform="matrix(0.705556,0,0,0.705556,51.219221,89.345595)"
       ns1:version="1.3.1"
       ns1:texconverter="pdflatex"
       ns1:pdfconverter="inkscape"
       ns1:text="$\\Gamma_-$"
       ns1:preamble="/home/tom/.config/inkscape/extensions/textext/default_packages.tex"
       ns1:scale="1.9999999877513703"
       ns1:alignment="middle center"
       ns1:jacobian_sqrt="0.705556"
       id="g3244">
      <defs
         id="id-9760fc24-6c9e-40ee-b10b-577632f4a23c">
        <g
           id="id-7f1fcbaf-4155-416a-887b-ff2a34a4773d">
          <symbol
             overflow="visible"
             id="id-a5632941-7444-4d88-810a-022752b7667b">
            <path
               style="stroke:none"
               d=""
               id="id-c28876f2-7fb5-4ec1-b32e-17ade563ff4c" />
          </symbol>
          <symbol
             overflow="visible"
             id="id-778158ae-5381-43ef-8d34-8bfb3f98a752">
            <path
               style="stroke:none"
               d="m 5.515625,-6.78125 h -5.1875 v 0.3125 H 0.5625 c 0.765625,0 0.796875,0.109375 0.796875,0.46875 v 5.21875 c 0,0.359375 -0.03125,0.46875 -0.796875,0.46875 H 0.328125 V 0 c 0.34375,-0.03125 1.125,-0.03125 1.515625,-0.03125 0.40625,0 1.3125,0 1.671875,0.03125 V -0.3125 H 3.1875 C 2.25,-0.3125 2.25,-0.4375 2.25,-0.78125 v -5.296875 c 0,-0.328125 0.015625,-0.390625 0.484375,-0.390625 h 1.03125 c 1.421875,0 1.625,0.59375 1.78125,1.9375 h 0.25 z m 0,0"
               id="id-a0ac66fd-1e09-4914-8b01-940f68cd8f4e" />
          </symbol>
          <symbol
             overflow="visible"
             id="id-d5e2e16c-4043-4123-bd44-0140802982a7">
            <path
               style="stroke:none"
               d=""
               id="id-1f777a2f-73a6-41d3-94f0-46e2349f77d0" />
          </symbol>
          <symbol
             overflow="visible"
             id="id-b67a9884-eb1f-4ac6-bd3a-b90018fd2c7f">
            <path
               style="stroke:none"
               d="m 5.1875,-1.578125 c 0.109375,0 0.28125,0 0.28125,-0.15625 0,-0.1875 -0.171875,-0.1875 -0.28125,-0.1875 H 1.03125 c -0.109375,0 -0.28125,0 -0.28125,0.171875 0,0.171875 0.15625,0.171875 0.28125,0.171875 z m 0,0"
               id="id-9d9c76d3-429b-43fb-8abd-45f6d616932c" />
          </symbol>
        </g>
      </defs>
      <g
         id="id-0c77c665-398c-488e-a1c6-fee49f2a4b24"
         transform="translate(-149.04,-127.984)">
        <g
           style="fill:#000000;fill-opacity:1"
           id="id-5a973df2-d1d2-4cd8-919d-941ef0b5385d">
          <g
             transform="translate(148.712,134.765)"
             id="g3469">
            <path
               style="stroke:none"
               d="m 5.515625,-6.78125 h -5.1875 v 0.3125 H 0.5625 c 0.765625,0 0.796875,0.109375 0.796875,0.46875 v 5.21875 c 0,0.359375 -0.03125,0.46875 -0.796875,0.46875 H 0.328125 V 0 c 0.34375,-0.03125 1.125,-0.03125 1.515625,-0.03125 0.40625,0 1.3125,0 1.671875,0.03125 V -0.3125 H 3.1875 C 2.25,-0.3125 2.25,-0.4375 2.25,-0.78125 v -5.296875 c 0,-0.328125 0.015625,-0.390625 0.484375,-0.390625 h 1.03125 c 1.421875,0 1.625,0.59375 1.78125,1.9375 h 0.25 z m 0,0"
               id="id-041cf79a-bbd2-4af6-8397-edff942a2e03" />
          </g>
        </g>
        <g
           style="fill:#000000;fill-opacity:1"
           id="id-b6d49d21-d71d-408c-83d8-71c03c6ce7d4">
          <g
             transform="translate(154.939,136.259)"
             id="g3473">
            <path
               style="stroke:none"
               d="m 5.1875,-1.578125 c 0.109375,0 0.28125,0 0.28125,-0.15625 0,-0.1875 -0.171875,-0.1875 -0.28125,-0.1875 H 1.03125 c -0.109375,0 -0.28125,0 -0.28125,0.171875 0,0.171875 0.15625,0.171875 0.28125,0.171875 z m 0,0"
               id="id-94e17855-3d36-4223-9b13-81d5b676e394" />
          </g>
        </g>
      </g>
    </g>
    <ellipse
       style="fill:#c2c0ff;fill-opacity:0.0120897;stroke:#000000;stroke-width:0.555625;stroke-linecap:round;stroke-linejoin:round;stroke-miterlimit:4;stroke-dasharray:0.555625, 2.2225;stroke-dashoffset:0;stroke-opacity:1;paint-order:stroke fill markers"
       id="ellipse3716"
       transform="rotate(140)"
       sodipodi:type="arc"
       sodipodi:cx="-4.2678795"
       sodipodi:cy="-134.93503"
       sodipodi:rx="17.002026"
       sodipodi:ry="38.816669"
       sodipodi:start="1.5634395"
       sodipodi:end="4.7138727"
       sodipodi:open="true"
       sodipodi:arc-type="arc"
       d="m -4.1427997,-96.119409 a 17.002026,38.816669 0 0 1 -14.8116333,-19.259231 17.002026,38.816669 0 0 1 -0.05005,-38.91552 17.002026,38.816669 0 0 1 14.7618347,-19.45749" />
    <path
       style="fill:none;fill-rule:evenodd;stroke:#000000;stroke-width:0.264583px;stroke-linecap:butt;stroke-linejoin:miter;stroke-opacity:1"
       d="m 58.208769,91.118998 18.259917,1.387714"
       id="path3869" />
    <path
       style="fill:none;fill-rule:evenodd;stroke:#000000;stroke-width:0.264583px;stroke-linecap:butt;stroke-linejoin:miter;stroke-opacity:1"
       d="M 146.77311,76.042379 135.3337,80.215257"
       id="path3871" />
    <path
       style="fill:none;fill-rule:evenodd;stroke:#000000;stroke-width:0.264583px;stroke-linecap:butt;stroke-linejoin:miter;stroke-opacity:1"
       d="m 140.22532,119.7746 -13.12638,-8.2677"
       id="path3873" />
    <path
       style="fill:none;fill-rule:evenodd;stroke:#000000;stroke-width:0.565;stroke-linecap:butt;stroke-linejoin:miter;stroke-miterlimit:3.9;stroke-dasharray:none;stroke-opacity:1;marker-start:url(#Arrow1Mstart);marker-end:url(#marker4457)"
       d="M 62.955759,67.696411 94.29788,41.397191"
       id="path4373" />
    <g
       transform="matrix(0.705556,0,0,0.705556,72.778641,47.228775)"
       ns1:version="1.3.1"
       ns1:texconverter="pdflatex"
       ns1:pdfconverter="inkscape"
       ns1:text="$\\delta$"
       ns1:preamble="/home/tom/.config/inkscape/extensions/textext/default_packages.tex"
       ns1:scale="1.9999999877513703"
       ns1:alignment="middle center"
       ns1:jacobian_sqrt="0.705556"
       id="g4740">
      <defs
         id="id-246e468f-7b6a-46d2-b1d6-de7b4a21fc5b">
        <g
           id="id-3bba5067-829c-4220-a7a0-1a1fb6e1cd00">
          <symbol
             overflow="visible"
             id="id-ba3513ce-239b-48a7-9772-11d68d2d3faf">
            <path
               style="stroke:none;stroke-width:0"
               d=""
               id="id-02730074-0331-488e-9cc6-3d34b7c99258" />
          </symbol>
          <symbol
             overflow="visible"
             id="id-c1208b82-73d4-42ec-a3bb-4af5fe00df93">
            <path
               style="stroke:none;stroke-width:0"
               d="M 2.625,-4.359375 C 1.390625,-4.0625 0.421875,-2.765625 0.421875,-1.5625 0.421875,-0.59375 1.0625,0.125 2,0.125 c 1.15625,0 1.984375,-1.578125 1.984375,-2.953125 0,-0.90625 -0.390625,-1.40625 -0.734375,-1.84375 C 2.890625,-5.125 2.296875,-5.875 2.296875,-6.3125 c 0,-0.21875 0.203125,-0.453125 0.546875,-0.453125 0.3125,0 0.5,0.125 0.71875,0.265625 0.203125,0.125 0.390625,0.25 0.546875,0.25 C 4.359375,-6.25 4.5,-6.484375 4.5,-6.65625 4.5,-6.875 4.34375,-6.890625 3.984375,-6.984375 3.46875,-7.09375 3.328125,-7.09375 3.171875,-7.09375 c -0.78125,0 -1.140625,0.4375 -1.140625,1.03125 0,0.546875 0.296875,1.09375 0.59375,1.703125 z m 0.125,0.21875 c 0.25,0.46875 0.546875,1 0.546875,1.71875 0,0.65625 -0.375,2.328125 -1.296875,2.328125 -0.546875,0 -0.96875,-0.421875 -0.96875,-1.1875 0,-0.625 0.375,-2.5 1.71875,-2.859375 z m 0,0"
               id="id-aa17cfc7-0c45-4ebb-a1d5-3cc0eaadb1fd" />
          </symbol>
        </g>
      </defs>
      <g
         id="id-0a485050-0c7d-41e7-be0f-aa91fb320978"
         transform="translate(-149.134,-127.671)">
        <g
           style="fill:#000000;fill-opacity:1"
           id="id-4b8af97d-b259-4546-a5a2-9105870680da">
          <g
             transform="translate(148.712,134.765)"
             id="g4736">
            <path
               style="stroke:none;stroke-width:0"
               d="M 2.625,-4.359375 C 1.390625,-4.0625 0.421875,-2.765625 0.421875,-1.5625 0.421875,-0.59375 1.0625,0.125 2,0.125 c 1.15625,0 1.984375,-1.578125 1.984375,-2.953125 0,-0.90625 -0.390625,-1.40625 -0.734375,-1.84375 C 2.890625,-5.125 2.296875,-5.875 2.296875,-6.3125 c 0,-0.21875 0.203125,-0.453125 0.546875,-0.453125 0.3125,0 0.5,0.125 0.71875,0.265625 0.203125,0.125 0.390625,0.25 0.546875,0.25 C 4.359375,-6.25 4.5,-6.484375 4.5,-6.65625 4.5,-6.875 4.34375,-6.890625 3.984375,-6.984375 3.46875,-7.09375 3.328125,-7.09375 3.171875,-7.09375 c -0.78125,0 -1.140625,0.4375 -1.140625,1.03125 0,0.546875 0.296875,1.09375 0.59375,1.703125 z m 0.125,0.21875 c 0.25,0.46875 0.546875,1 0.546875,1.71875 0,0.65625 -0.375,2.328125 -1.296875,2.328125 -0.546875,0 -0.96875,-0.421875 -0.96875,-1.1875 0,-0.625 0.375,-2.5 1.71875,-2.859375 z m 0,0"
               id="id-7c220a8a-78e1-43be-9a74-390a6e49d8e8" />
          </g>
        </g>
      </g>
    </g>
  </g>
</svg>
